<?xml version="1.0" encoding="UTF-8" standalone="no"?>
<!DOCTYPE svg PUBLIC "-//W3C//DTD SVG 1.1//EN" "http://www.w3.org/Graphics/SVG/1.1/DTD/svg11.dtd">
<svg width="100%" height="100%" preserveAspectRatio="none" viewBox="0 0 649 866" version="1.1" xmlns="http://www.w3.org/2000/svg" xmlns:xlink="http://www.w3.org/1999/xlink" xml:space="preserve" xmlns:serif="http://www.serif.com/" style="fill-rule:evenodd;clip-rule:evenodd;stroke-linejoin:round;stroke-miterlimit:2;">
    <g>
        <g transform="matrix(-3.05e-05,793.108,793.108,3.05e-05,282.568,11.8971)">
            <path d="M0.557,0.003C0.557,0.003 0.558,0.002 0.558,0.002C0.558,0.002 0.558,0.001 0.557,0.001L0.558,0.001C0.558,0.001 0.558,0.001 0.558,0.001C0.558,0.001 0.558,0.001 0.558,0.001L0.558,0.001L0.558,0.001C0.558,0.001 0.558,0 0.558,-0.001C0.559,-0.001 0.559,-0.003 0.559,-0.003L0.559,-0.003L0.559,-0.003C0.56,-0.003 0.569,-0.002 0.572,-0.002C0.572,-0.002 0.572,-0.002 0.572,-0.002L0.572,-0.002L0.572,-0.002C0.573,-0.002 0.579,-0.002 0.583,-0.002C0.583,-0.002 0.584,-0.002 0.584,-0.002L0.584,-0.002C0.584,-0.002 0.584,-0.002 0.584,-0.002C0.584,-0.002 0.592,-0.001 0.596,-0.001C0.596,-0.001 0.596,-0.001 0.596,-0.001L0.596,-0.001L0.596,-0.001C0.597,-0.001 0.605,-0.001 0.61,-0.001C0.61,-0.001 0.61,-0.001 0.61,-0.001L0.61,-0.001L0.61,-0.001C0.611,-0.001 0.621,-0.001 0.625,-0.001C0.625,-0.001 0.625,-0.001 0.625,-0.001L0.625,-0.001C0.625,-0.001 0.625,-0.001 0.625,-0.001C0.626,-0.001 0.637,-0.001 0.641,-0C0.641,-0.001 0.641,-0.001 0.641,-0.001L0.641,-0.001C0.641,-0.001 0.641,-0.001 0.641,-0.001C0.642,-0.001 0.656,-0.001 0.659,-0C0.659,-0.001 0.659,-0.001 0.659,-0.001L0.659,-0.001L0.659,-0.001C0.66,-0.001 0.677,-0.001 0.678,-0C0.678,-0 0.678,-0 0.678,-0C0.678,-0.001 0.678,-0.001 0.678,-0.001L0.678,-0.001C0.678,-0.001 0.678,-0.001 0.678,-0.001C0.679,-0.001 0.692,-0.001 0.697,-0.001C0.697,-0.001 0.697,-0.002 0.697,-0.002L0.697,-0.002C0.697,-0.002 0.697,-0.002 0.697,-0.002C0.698,-0.002 0.711,-0.002 0.716,-0.002C0.716,-0.002 0.716,-0.002 0.716,-0.002L0.716,-0.002L0.716,-0.002C0.717,-0.002 0.73,-0.003 0.735,-0.002C0.735,-0.003 0.735,-0.003 0.735,-0.003L0.735,-0.003L0.735,-0.003C0.736,-0.003 0.748,-0.003 0.754,-0.003C0.754,-0.003 0.754,-0.004 0.754,-0.004L0.754,-0.004L0.754,-0.004C0.756,-0.004 0.769,-0.004 0.775,-0.004C0.775,-0.004 0.775,-0.005 0.775,-0.005L0.775,-0.005C0.775,-0.005 0.775,-0.005 0.775,-0.005C0.776,-0.005 0.789,-0.005 0.795,-0.005C0.795,-0.006 0.796,-0.006 0.796,-0.006L0.796,-0.006C0.796,-0.006 0.796,-0.006 0.796,-0.006C0.797,-0.006 0.813,-0.007 0.819,-0.006C0.819,-0.007 0.819,-0.007 0.819,-0.007L0.819,-0.007C0.819,-0.007 0.819,-0.007 0.819,-0.007C0.821,-0.007 0.833,-0.008 0.84,-0.008C0.841,-0.008 0.841,-0.009 0.841,-0.009L0.841,-0.009C0.841,-0.009 0.841,-0.009 0.841,-0.009C0.843,-0.009 0.866,-0.01 0.869,-0.009C0.871,-0.008 0.872,-0.006 0.872,-0.004C0.872,-0.004 0.872,-0.004 0.872,-0.003C0.872,-0.003 0.872,-0.003 0.872,-0.003C0.872,-0.003 0.872,-0.003 0.872,-0.003C0.872,-0.002 0.871,-0.001 0.871,0L0.869,0.006C0.869,0.007 0.844,0.008 0.842,0.008C0.842,0.008 0.842,0.008 0.842,0.008C0.842,0.008 0.842,0.007 0.842,0.007C0.834,0.008 0.822,0.008 0.82,0.008C0.82,0.008 0.82,0.008 0.82,0.008C0.82,0.008 0.82,0.008 0.82,0.008C0.814,0.009 0.798,0.009 0.797,0.009C0.797,0.009 0.796,0.009 0.796,0.009C0.79,0.01 0.777,0.01 0.776,0.01C0.776,0.01 0.776,0.01 0.776,0.01C0.776,0.01 0.776,0.01 0.775,0.009C0.769,0.01 0.756,0.01 0.754,0.01C0.754,0.01 0.754,0.01 0.754,0.01C0.754,0.01 0.754,0.01 0.754,0.01C0.754,0.01 0.754,0.01 0.754,0.01C0.748,0.011 0.736,0.011 0.735,0.01C0.735,0.01 0.735,0.01 0.735,0.01C0.729,0.011 0.717,0.011 0.715,0.011C0.715,0.011 0.715,0.011 0.715,0.01C0.71,0.011 0.697,0.011 0.696,0.011C0.696,0.011 0.696,0.011 0.696,0.011C0.696,0.011 0.696,0.011 0.696,0.01C0.691,0.011 0.678,0.011 0.677,0.011C0.677,0.011 0.677,0.011 0.677,0.01C0.677,0.01 0.677,0.01 0.677,0.01C0.674,0.011 0.659,0.01 0.658,0.01C0.658,0.01 0.658,0.01 0.658,0.01C0.658,0.01 0.658,0.01 0.658,0.01C0.653,0.011 0.641,0.01 0.64,0.01C0.64,0.01 0.64,0.01 0.64,0.01C0.635,0.01 0.624,0.01 0.623,0.01C0.623,0.01 0.623,0.01 0.623,0.009C0.623,0.009 0.623,0.009 0.623,0.009C0.618,0.01 0.609,0.009 0.608,0.009C0.608,0.009 0.608,0.009 0.608,0.009C0.603,0.009 0.595,0.008 0.594,0.008C0.594,0.008 0.594,0.008 0.594,0.008C0.589,0.008 0.582,0.008 0.581,0.008C0.581,0.008 0.581,0.007 0.581,0.007C0.577,0.007 0.57,0.007 0.569,0.007C0.569,0.007 0.569,0.007 0.569,0.007C0.565,0.007 0.557,0.006 0.556,0.006C0.556,0.006 0.556,0.006 0.556,0.005C0.556,0.005 0.557,0.004 0.557,0.003Z" style="fill:url(#_Linear1);fill-rule:nonzero;"/>
        </g>
        <g transform="matrix(-3.05e-05,793.123,793.123,3.05e-05,290.327,11.8888)">
            <path d="M0.478,-0.026C0.48,-0.022 0.49,-0.017 0.519,-0.013C0.519,-0.013 0.475,0.017 0.475,-0.01C0.475,-0.014 0.476,-0.019 0.478,-0.026ZM0.481,-0.032C0.48,-0.03 0.479,-0.028 0.478,-0.026C0.478,-0.027 0.478,-0.028 0.478,-0.028C0.478,-0.031 0.481,-0.032 0.481,-0.032Z" style="fill:url(#_Linear2);fill-rule:nonzero;"/>
        </g>
        <g transform="matrix(-3.05e-05,793.116,793.116,3.05e-05,318.227,11.8903)">
            <path d="M0.483,0.017C0.484,0.007 0.483,0.003 0.486,-0.006C0.488,-0.014 0.503,-0.044 0.509,-0.044C0.51,-0.038 0.512,-0.032 0.514,-0.026C0.51,-0.023 0.506,-0.02 0.505,-0.019C0.503,-0.018 0.508,-0.02 0.515,-0.024C0.516,-0.019 0.517,-0.015 0.516,-0.01C0.516,-0.009 0.516,-0.008 0.515,-0.006L0.499,-0.005C0.499,-0.005 0.507,-0.005 0.515,-0.004C0.513,-0.001 0.511,0.003 0.51,0.006C0.508,0.009 0.507,0.012 0.506,0.015C0.502,0.014 0.498,0.012 0.494,0.011C0.496,0.013 0.498,0.016 0.501,0.017C0.497,0.021 0.494,0.026 0.491,0.031C0.488,0.028 0.488,0.027 0.484,0.026C0.485,0.029 0.486,0.031 0.486,0.035C0.485,0.038 0.476,0.042 0.473,0.044C0.474,0.037 0.481,0.024 0.483,0.017Z" style="fill:url(#_Linear3);fill-rule:nonzero;"/>
        </g>
        <g transform="matrix(-3.05e-05,793.128,793.128,3.05e-05,243.8,11.8859)">
            <path d="M0.496,0.01C0.496,0.007 0.498,0.003 0.5,-0C0.503,-0.001 0.505,-0.002 0.506,-0.003C0.506,-0.003 0.505,-0.004 0.503,-0.003C0.507,-0.01 0.512,-0.014 0.512,-0.014C0.515,-0.015 0.519,-0.016 0.52,-0.017C0.517,-0.016 0.515,-0.017 0.515,-0.017C0.523,-0.026 0.531,-0.031 0.536,-0.033C0.538,-0.033 0.539,-0.034 0.539,-0.034C0.541,-0.035 0.54,-0.034 0.54,-0.032C0.539,-0.032 0.539,-0.031 0.539,-0.031C0.535,-0.023 0.531,-0.009 0.532,-0.008C0.53,-0.008 0.527,-0.011 0.527,-0.011C0.527,-0.011 0.527,-0.007 0.527,-0.004C0.526,-0.002 0.526,0.001 0.526,0.001C0.523,0.007 0.524,0.009 0.523,0.013C0.52,0.013 0.517,0.008 0.517,0.007C0.517,0.012 0.519,0.016 0.52,0.016C0.519,0.016 0.52,0.017 0.521,0.018C0.521,0.018 0.522,0.019 0.522,0.019C0.513,0.026 0.512,0.036 0.512,0.036C0.497,0.035 0.497,0.026 0.496,0.018C0.498,0.017 0.502,0.012 0.505,0.011C0.502,0.012 0.5,0.011 0.498,0.012C0.497,0.012 0.497,0.012 0.496,0.012C0.496,0.012 0.496,0.011 0.496,0.011C0.496,0.01 0.496,0.01 0.496,0.01ZM0.521,-0.017C0.521,-0.017 0.521,-0.017 0.521,-0.017L0.521,-0.017L0.521,-0.017ZM0.512,-0.014L0.512,-0.014L0.512,-0.014L0.512,-0.014L0.512,-0.014Z" style="fill:url(#_Linear4);fill-rule:nonzero;"/>
        </g>
        <g transform="matrix(-3.05e-05,793.114,793.114,3.05e-05,237.268,11.8937)">
            <path d="M0.495,-0.06C0.495,-0.06 0.499,-0.052 0.497,-0.044L0.492,-0.042L0.495,-0.04C0.495,-0.04 0.489,-0.028 0.489,-0.018L0.482,-0.014L0.489,-0.012C0.489,-0.012 0.491,-0.004 0.493,0.005C0.489,0.007 0.486,0.01 0.486,0.01L0.495,0.012C0.497,0.018 0.499,0.024 0.501,0.027L0.5,0.033L0.507,0.034L0.51,0.06C0.51,0.06 0.475,0.029 0.471,0.002C0.471,-0.002 0.47,-0.005 0.47,-0.008C0.47,-0.031 0.48,-0.048 0.495,-0.06Z" style="fill:url(#_Linear5);fill-rule:nonzero;"/>
        </g>
        <g transform="matrix(-3.05e-05,793.086,793.086,3.05e-05,238.796,11.9044)">
            <path d="M0.485,-0.006C0.489,-0.033 0.526,-0.056 0.526,-0.056L0.526,-0.037L0.514,-0.037L0.516,-0.03C0.513,-0.028 0.511,-0.022 0.509,-0.016L0.5,-0.014C0.5,-0.014 0.504,-0.011 0.507,-0.009C0.505,0 0.503,0.008 0.503,0.008L0.497,0.011L0.503,0.014C0.504,0.025 0.509,0.036 0.509,0.036L0.506,0.038L0.511,0.04C0.513,0.048 0.509,0.056 0.509,0.056C0.495,0.044 0.485,0.027 0.485,0.005C0.485,0.001 0.485,-0.002 0.485,-0.006Z" style="fill:url(#_Linear6);fill-rule:nonzero;"/>
        </g>
        <g transform="matrix(-3.05e-05,793.122,793.122,3.05e-05,325.607,11.8874)">
            <path d="M0.51,-0.052C0.517,-0.046 0.523,-0.04 0.528,-0.033C0.527,-0.032 0.526,-0.032 0.526,-0.032C0.531,-0.023 0.535,-0.013 0.537,-0.008C0.537,-0.006 0.536,-0.004 0.535,-0.002C0.537,-0.001 0.539,0 0.541,0.001C0.541,0.001 0.538,0.012 0.536,0.025C0.538,0.029 0.539,0.032 0.539,0.032C0.538,0.033 0.537,0.034 0.536,0.035C0.537,0.035 0.539,0.036 0.54,0.036C0.541,0.04 0.539,0.045 0.538,0.048C0.537,0.05 0.536,0.052 0.536,0.052C0.523,0.038 0.515,0.025 0.511,0.005C0.51,-0.001 0.51,-0.009 0.51,-0.017C0.511,-0.022 0.511,-0.026 0.511,-0.03C0.511,-0.036 0.51,-0.041 0.51,-0.045C0.51,-0.049 0.51,-0.051 0.51,-0.051C0.51,-0.052 0.51,-0.052 0.51,-0.052Z" style="fill:url(#_Linear7);fill-rule:nonzero;"/>
        </g>
        <g transform="matrix(-3.05e-05,793.095,793.095,3.05e-05,259.154,11.9005)">
            <path d="M0.505,0.007C0.505,0.007 0.508,0.008 0.51,0.01C0.51,0.01 0.508,0.006 0.506,0.003C0.506,0.003 0.509,-0.004 0.513,-0.011C0.514,-0.009 0.515,-0.007 0.515,-0.007C0.515,-0.008 0.514,-0.01 0.513,-0.012C0.516,-0.017 0.52,-0.022 0.523,-0.024L0.529,-0.014L0.526,-0.027C0.526,-0.027 0.534,-0.036 0.546,-0.036C0.546,-0.036 0.554,-0.036 0.561,-0.036C0.566,-0.036 0.571,-0.036 0.574,-0.035C0.574,-0.035 0.573,-0.035 0.573,-0.034C0.573,-0.034 0.574,-0.034 0.574,-0.034L0.57,-0.032L0.575,-0.033C0.575,-0.033 0.572,-0.028 0.566,-0.022C0.566,-0.022 0.565,-0.025 0.561,-0.026C0.561,-0.025 0.56,-0.025 0.56,-0.024C0.556,-0.025 0.551,-0.024 0.547,-0.023L0.559,-0.023C0.557,-0.02 0.555,-0.017 0.554,-0.012C0.554,-0.012 0.543,-0.009 0.539,-0.005C0.539,-0.005 0.547,-0.009 0.552,-0.007L0.54,0.015C0.54,0.015 0.533,0.016 0.532,0.016C0.532,0.016 0.536,0.017 0.538,0.018C0.538,0.018 0.522,0.028 0.514,0.032C0.514,0.032 0.511,0.035 0.51,0.032C0.51,0.032 0.51,0.032 0.51,0.032C0.51,0.032 0.503,0.024 0.503,0.015C0.503,0.013 0.503,0.01 0.505,0.007Z" style="fill:url(#_Linear8);fill-rule:nonzero;"/>
        </g>
        <g transform="matrix(-3.05e-05,793.108,793.108,3.05e-05,311.347,11.8942)">
            <path d="M0.564,-0.004C0.559,-0.001 0.556,0.002 0.556,0.002C0.556,0.002 0.562,0.004 0.568,0.001C0.57,0.003 0.571,0.005 0.573,0.007C0.567,0.009 0.562,0.008 0.562,0.008C0.562,0.008 0.567,0.011 0.575,0.009C0.581,0.017 0.592,0.024 0.592,0.024C0.592,0.024 0.587,0.028 0.582,0.029C0.576,0.027 0.574,0.026 0.574,0.026C0.574,0.026 0.574,0.026 0.578,0.03C0.569,0.032 0.561,0.031 0.554,0.026C0.554,0.023 0.554,0.021 0.553,0.02C0.553,0.02 0.553,0.021 0.552,0.025C0.548,0.022 0.54,0.018 0.536,0.014C0.536,0.013 0.537,0.012 0.537,0.012C0.537,0.011 0.538,0.01 0.537,0.009C0.537,0.009 0.536,0.013 0.534,0.011C0.52,-0.005 0.512,-0.023 0.509,-0.034C0.529,-0.031 0.545,-0.026 0.564,-0.004Z" style="fill:url(#_Linear9);fill-rule:nonzero;"/>
        </g>
        <g transform="matrix(-3.05e-05,793.111,793.111,3.05e-05,283.307,11.8947)">
            <path d="M0.517,-0.012C0.521,-0.015 0.551,-0.027 0.551,-0.027C0.55,-0.023 0.548,-0.02 0.546,-0.016C0.551,-0.02 0.562,-0.028 0.562,-0.028C0.574,-0.019 0.59,-0.014 0.59,-0.014C0.567,-0.003 0.559,0.018 0.558,0.018C0.554,0.015 0.547,0.008 0.546,0.008C0.548,0.012 0.549,0.016 0.55,0.02C0.541,0.025 0.53,0.019 0.529,0.02C0.522,0.014 0.515,0.01 0.515,0.009C0.512,0.006 0.51,0.002 0.51,-0.001C0.51,-0.005 0.513,-0.009 0.517,-0.012Z" style="fill:url(#_Linear10);fill-rule:nonzero;"/>
        </g>
        <g transform="matrix(-3.05e-05,793.105,793.105,3.05e-05,272.858,11.8952)">
            <path d="M0.517,0.001C0.521,-0.002 0.551,-0.013 0.551,-0.014C0.55,-0.01 0.548,-0.006 0.546,-0.003C0.551,-0.007 0.562,-0.015 0.562,-0.015C0.574,-0.006 0.59,-0.001 0.59,-0.001C0.59,-0.001 0.589,-0.001 0.589,-0.001C0.58,0 0.571,0.001 0.562,0.002C0.544,0.006 0.523,0.006 0.511,0.015C0.511,0.014 0.51,0.013 0.51,0.012C0.51,0.008 0.513,0.004 0.517,0.001Z" style="fill:url(#_Linear11);fill-rule:nonzero;"/>
        </g>
        <g transform="matrix(-3.05e-05,793.111,793.111,3.05e-05,388.984,-10.4383)">
            <path d="M0.635,0.001C0.635,0.001 0.636,0 0.636,-0C0.636,-0 0.636,-0 0.635,-0L0.636,-0C0.636,-0 0.636,-0 0.636,-0C0.636,-0 0.636,-0 0.636,-0L0.636,-0.001C0.636,-0.002 0.637,-0.003 0.637,-0.003L0.637,-0.003C0.637,-0.003 0.637,-0.003 0.637,-0.003C0.638,-0.003 0.673,-0.002 0.676,-0.001C0.676,-0.001 0.676,-0.002 0.676,-0.002L0.676,-0.002L0.676,-0.002C0.677,-0.002 0.681,-0.001 0.684,-0.001C0.684,-0.001 0.684,-0.001 0.684,-0.001L0.684,-0.001C0.684,-0.001 0.684,-0.001 0.684,-0.001C0.685,-0.001 0.69,-0.001 0.693,-0.001C0.693,-0.001 0.693,-0.001 0.693,-0.001L0.693,-0.001L0.693,-0.001C0.694,-0.001 0.7,-0.001 0.703,-0.001C0.703,-0.001 0.703,-0.001 0.703,-0.001L0.703,-0.001L0.703,-0.001C0.704,-0.001 0.711,-0.001 0.714,-0C0.714,-0.001 0.714,-0.001 0.714,-0.001L0.714,-0.001C0.714,-0.001 0.714,-0.001 0.714,-0.001C0.715,-0.001 0.723,-0.001 0.726,-0C0.726,-0 0.726,-0.001 0.726,-0.001L0.726,-0.001C0.726,-0.001 0.726,-0.001 0.726,-0.001C0.727,-0.001 0.737,-0.001 0.739,-0C0.739,-0 0.739,-0.001 0.739,-0.001L0.739,-0.001L0.739,-0.001C0.74,-0.001 0.752,-0.001 0.753,-0C0.753,-0 0.753,-0 0.753,-0C0.753,-0.001 0.753,-0.001 0.753,-0.001L0.753,-0.001L0.753,-0.001C0.754,-0.001 0.763,-0.001 0.766,-0.001C0.766,-0.001 0.766,-0.001 0.766,-0.001L0.766,-0.001C0.766,-0.001 0.766,-0.001 0.766,-0.001C0.767,-0.001 0.776,-0.001 0.78,-0.001C0.78,-0.001 0.78,-0.001 0.78,-0.001L0.78,-0.002L0.78,-0.001C0.781,-0.001 0.79,-0.002 0.794,-0.002C0.794,-0.002 0.794,-0.002 0.794,-0.002L0.794,-0.002L0.794,-0.002C0.795,-0.002 0.803,-0.002 0.808,-0.002C0.808,-0.002 0.808,-0.003 0.808,-0.003L0.808,-0.003L0.808,-0.003C0.809,-0.003 0.819,-0.003 0.823,-0.003C0.823,-0.003 0.823,-0.003 0.823,-0.003L0.823,-0.003C0.823,-0.003 0.823,-0.003 0.823,-0.003C0.824,-0.003 0.833,-0.004 0.838,-0.004C0.838,-0.004 0.838,-0.004 0.838,-0.004L0.838,-0.004C0.838,-0.004 0.838,-0.004 0.838,-0.004C0.839,-0.004 0.851,-0.005 0.855,-0.005C0.855,-0.005 0.855,-0.005 0.855,-0.005L0.855,-0.005C0.855,-0.005 0.855,-0.005 0.855,-0.005C0.856,-0.005 0.865,-0.006 0.87,-0.006C0.87,-0.006 0.87,-0.006 0.87,-0.006L0.87,-0.006C0.87,-0.006 0.87,-0.006 0.87,-0.006C0.872,-0.006 0.889,-0.007 0.891,-0.006C0.892,-0.006 0.893,-0.005 0.893,-0.003C0.893,-0.003 0.893,-0.003 0.893,-0.002C0.893,-0.002 0.893,-0.002 0.893,-0.003C0.893,-0.002 0.893,-0.002 0.893,-0.002C0.893,-0.002 0.893,-0.001 0.892,0C0.892,0 0.892,0 0.892,0C0.892,0 0.892,0 0.892,0.001C0.892,0.001 0.892,0.001 0.892,0.001C0.891,0.003 0.891,0.004 0.891,0.004C0.891,0.005 0.873,0.005 0.872,0.005C0.871,0.005 0.871,0.005 0.871,0.005C0.871,0.005 0.871,0.005 0.871,0.005C0.866,0.006 0.857,0.006 0.856,0.006C0.856,0.006 0.856,0.006 0.856,0.006C0.856,0.006 0.856,0.006 0.855,0.006C0.851,0.006 0.839,0.007 0.839,0.007C0.838,0.007 0.838,0.007 0.838,0.006C0.833,0.007 0.824,0.007 0.823,0.007C0.823,0.007 0.823,0.007 0.823,0.007C0.823,0.007 0.823,0.007 0.823,0.007C0.819,0.007 0.809,0.007 0.808,0.007C0.808,0.007 0.808,0.007 0.808,0.007C0.808,0.007 0.808,0.007 0.808,0.007C0.808,0.007 0.808,0.007 0.808,0.007C0.803,0.008 0.795,0.008 0.794,0.008C0.794,0.008 0.794,0.008 0.794,0.007C0.79,0.008 0.781,0.008 0.78,0.008C0.78,0.008 0.78,0.008 0.78,0.008C0.776,0.008 0.767,0.008 0.766,0.008C0.766,0.008 0.766,0.008 0.766,0.008C0.766,0.008 0.766,0.008 0.766,0.008C0.762,0.008 0.753,0.008 0.752,0.008C0.752,0.008 0.752,0.008 0.752,0.007C0.752,0.007 0.752,0.007 0.752,0.007C0.75,0.008 0.739,0.008 0.738,0.008C0.738,0.008 0.738,0.008 0.738,0.007C0.738,0.007 0.738,0.007 0.738,0.007C0.735,0.008 0.726,0.007 0.725,0.007C0.725,0.007 0.725,0.007 0.725,0.007C0.722,0.007 0.714,0.007 0.713,0.007C0.713,0.007 0.713,0.007 0.713,0.007C0.713,0.007 0.713,0.007 0.713,0.007C0.709,0.007 0.702,0.007 0.702,0.006C0.702,0.006 0.702,0.006 0.702,0.006C0.698,0.006 0.692,0.006 0.692,0.006C0.692,0.006 0.692,0.006 0.692,0.006C0.688,0.006 0.683,0.005 0.683,0.005C0.683,0.005 0.683,0.005 0.682,0.005C0.679,0.005 0.675,0.005 0.674,0.005C0.674,0.005 0.674,0.005 0.674,0.005C0.671,0.005 0.635,0.003 0.635,0.003C0.635,0.003 0.635,0.003 0.635,0.003C0.635,0.002 0.635,0.002 0.635,0.001Z" style="fill:url(#_Linear12);fill-rule:nonzero;"/>
        </g>
        <g transform="matrix(-3.05e-05,793.131,793.131,3.05e-05,414.785,-10.4515)">
            <path d="M0.611,0.012C0.612,0.005 0.612,0.003 0.614,-0.004C0.615,-0.01 0.626,-0.032 0.631,-0.032C0.631,-0.028 0.633,-0.023 0.634,-0.019C0.631,-0.016 0.628,-0.014 0.627,-0.014C0.626,-0.013 0.63,-0.015 0.635,-0.017C0.636,-0.014 0.636,-0.011 0.636,-0.007C0.636,-0.006 0.635,-0.005 0.635,-0.005L0.623,-0.003C0.623,-0.003 0.629,-0.004 0.634,-0.003C0.633,-0 0.632,0.002 0.631,0.005C0.63,0.007 0.629,0.009 0.628,0.011C0.625,0.01 0.622,0.008 0.619,0.008C0.621,0.009 0.623,0.011 0.625,0.012C0.622,0.015 0.619,0.019 0.618,0.022C0.615,0.02 0.615,0.02 0.613,0.019C0.613,0.021 0.614,0.022 0.614,0.025C0.613,0.027 0.606,0.031 0.604,0.032C0.605,0.027 0.61,0.018 0.611,0.012Z" style="fill:url(#_Linear13);fill-rule:nonzero;"/>
        </g>
        <g transform="matrix(-3.05e-05,793.131,793.131,3.05e-05,366.338,-10.4539)">
            <path d="M0.625,0.007C0.626,0.007 0.63,0.004 0.632,0.004C0.63,0.004 0.629,0.003 0.627,0.003C0.627,0.003 0.627,0.003 0.626,0.003C0.626,0.003 0.626,0.002 0.627,0.001C0.627,-0.001 0.629,-0.003 0.631,-0.005C0.633,-0.005 0.635,-0.006 0.636,-0.006C0.636,-0.006 0.636,-0.007 0.633,-0.007C0.638,-0.011 0.642,-0.013 0.642,-0.013C0.644,-0.013 0.647,-0.013 0.648,-0.013C0.646,-0.013 0.645,-0.014 0.645,-0.014C0.652,-0.019 0.659,-0.021 0.662,-0.021C0.663,-0.021 0.664,-0.021 0.664,-0.021C0.666,-0.022 0.665,-0.021 0.665,-0.02C0.664,-0.02 0.664,-0.02 0.664,-0.02C0.659,-0.015 0.654,-0.005 0.655,-0.005C0.654,-0.005 0.652,-0.008 0.652,-0.008C0.652,-0.007 0.649,0 0.649,0C0.646,0.004 0.646,0.006 0.645,0.009C0.642,0.007 0.642,0.004 0.642,0.003C0.641,0.006 0.642,0.01 0.642,0.01C0.642,0.01 0.642,0.011 0.642,0.011C0.643,0.012 0.643,0.012 0.643,0.013C0.636,0.015 0.633,0.023 0.633,0.022C0.626,0.02 0.625,0.017 0.625,0.013C0.625,0.011 0.625,0.009 0.625,0.007ZM0.649,-0.013L0.649,-0.013L0.649,-0.013ZM0.642,-0.013L0.642,-0.013L0.642,-0.013L0.642,-0.013L0.642,-0.013Z" style="fill:url(#_Linear14);fill-rule:nonzero;"/>
        </g>
        <g transform="matrix(-3.05e-05,793.152,793.152,3.05e-05,356.204,-10.4642)">
            <path d="M0.62,-0.044C0.62,-0.044 0.623,-0.038 0.621,-0.032L0.618,-0.03L0.62,-0.029C0.62,-0.029 0.616,-0.02 0.616,-0.013L0.611,-0.01L0.616,-0.009C0.616,-0.009 0.617,-0.003 0.619,0.004C0.616,0.005 0.614,0.007 0.614,0.007L0.62,0.009C0.622,0.013 0.623,0.017 0.625,0.019L0.624,0.024L0.629,0.025L0.631,0.044C0.631,0.044 0.605,0.021 0.603,0.001C0.603,-0.001 0.603,-0.004 0.603,-0.006C0.603,-0.022 0.61,-0.034 0.62,-0.044Z" style="fill:url(#_Linear15);fill-rule:nonzero;"/>
        </g>
        <g transform="matrix(-3.05e-05,793.073,793.073,3.05e-05,357.513,-10.4159)">
            <path d="M0.615,-0.004C0.617,-0.024 0.644,-0.041 0.644,-0.041L0.644,-0.027L0.636,-0.027L0.637,-0.022C0.635,-0.02 0.633,-0.016 0.632,-0.011L0.626,-0.01C0.626,-0.01 0.628,-0.008 0.631,-0.006C0.629,0 0.628,0.006 0.628,0.006L0.623,0.008L0.627,0.01C0.628,0.018 0.632,0.026 0.632,0.026L0.63,0.028L0.633,0.029C0.635,0.035 0.632,0.041 0.632,0.041C0.622,0.032 0.614,0.02 0.614,0.003C0.614,0.001 0.615,-0.001 0.615,-0.004Z" style="fill:url(#_Linear16);fill-rule:nonzero;"/>
        </g>
        <g transform="matrix(-3.05e-05,793.139,793.139,3.05e-05,420.126,-10.4593)">
            <path d="M0.631,-0.037C0.636,-0.033 0.64,-0.029 0.644,-0.024C0.643,-0.024 0.643,-0.023 0.642,-0.023C0.646,-0.017 0.649,-0.01 0.651,-0.006C0.65,-0.004 0.65,-0.003 0.649,-0.001C0.651,-0.001 0.652,0 0.653,0.001C0.653,0.001 0.651,0.009 0.65,0.018C0.651,0.021 0.652,0.023 0.652,0.023C0.651,0.024 0.651,0.025 0.65,0.025C0.651,0.026 0.652,0.026 0.653,0.026C0.653,0.029 0.652,0.032 0.651,0.034C0.651,0.036 0.65,0.037 0.65,0.037C0.641,0.027 0.635,0.018 0.632,0.004C0.631,-0.001 0.631,-0.007 0.631,-0.013C0.632,-0.016 0.632,-0.019 0.632,-0.022C0.632,-0.026 0.631,-0.03 0.631,-0.033C0.631,-0.035 0.631,-0.037 0.631,-0.037C0.631,-0.037 0.631,-0.037 0.631,-0.037Z" style="fill:url(#_Linear17);fill-rule:nonzero;"/>
        </g>
        <g transform="matrix(-3.05e-05,793.104,793.104,3.05e-05,375.56,-10.432)">
            <path d="M0.637,0C0.637,0 0.639,0.001 0.64,0.004C0.64,0.004 0.639,0.001 0.639,-0.002C0.639,-0.002 0.643,-0.006 0.648,-0.009C0.648,-0.007 0.648,-0.006 0.648,-0.006C0.649,-0.007 0.649,-0.008 0.649,-0.01C0.652,-0.012 0.656,-0.014 0.659,-0.015L0.659,-0.006L0.661,-0.016C0.661,-0.016 0.669,-0.019 0.678,-0.015C0.678,-0.015 0.682,-0.013 0.687,-0.011C0.687,-0.011 0.685,-0.005 0.684,-0.004C0.684,-0.004 0.683,-0.004 0.683,-0.004C0.681,-0.005 0.677,-0.006 0.674,-0.007L0.682,-0.003C0.68,-0.002 0.678,0 0.675,0.003C0.675,0.003 0.667,0.001 0.663,0.003C0.663,0.003 0.669,0.003 0.672,0.006L0.658,0.016C0.658,0.016 0.653,0.015 0.652,0.014C0.652,0.014 0.655,0.016 0.656,0.017C0.656,0.017 0.642,0.019 0.636,0.019C0.636,0.019 0.632,0.02 0.633,0.018C0.633,0.018 0.633,0.018 0.633,0.018C0.633,0.018 0.632,0.015 0.632,0.012C0.632,0.008 0.633,0.003 0.637,0Z" style="fill:url(#_Linear18);fill-rule:nonzero;"/>
        </g>
        <g transform="matrix(-3.05e-05,793.128,793.128,3.05e-05,409.805,-10.4496)">
            <path d="M0.67,-0.003C0.666,-0.001 0.662,0.002 0.662,0.002C0.662,0.002 0.669,0.003 0.673,0.001C0.674,0.002 0.675,0.004 0.677,0.005C0.672,0.006 0.669,0.008 0.669,0.008C0.669,0.008 0.673,0.008 0.678,0.007C0.683,0.012 0.69,0.017 0.69,0.017C0.69,0.017 0.687,0.02 0.683,0.021C0.679,0.019 0.677,0.019 0.677,0.019C0.677,0.019 0.677,0.019 0.68,0.022C0.674,0.023 0.668,0.022 0.663,0.019C0.663,0.017 0.663,0.015 0.663,0.015C0.663,0.015 0.662,0.016 0.662,0.018C0.659,0.016 0.653,0.013 0.65,0.01C0.65,0.009 0.65,0.009 0.651,0.009C0.651,0.008 0.651,0.007 0.651,0.006C0.651,0.006 0.65,0.009 0.648,0.008C0.638,-0.003 0.633,-0.017 0.631,-0.024C0.645,-0.022 0.656,-0.019 0.67,-0.003Z" style="fill:url(#_Linear19);fill-rule:nonzero;"/>
        </g>
        <g transform="matrix(-3.05e-05,793.516,793.516,3.05e-05,374.108,-10.6869)">
            <path d="M0.615,-0.002C0.615,-0.002 0.611,0.002 0.61,0.004C0.61,0.003 0.61,0.003 0.61,0.002C0.61,-0.003 0.615,-0.002 0.615,-0.002Z" style="fill:url(#_Linear20);fill-rule:nonzero;"/>
        </g>
        <g transform="matrix(-3.05e-05,793.091,793.091,3.05e-05,388.264,-10.4261)">
            <path d="M0.61,-0.014C0.611,-0.013 0.612,-0.012 0.613,-0.01L0.612,-0.006L0.615,-0.009C0.616,-0.008 0.618,-0.007 0.62,-0.006L0.615,0L0.624,-0.005C0.626,-0.004 0.628,-0.003 0.631,-0.003L0.625,0.002L0.635,-0.002C0.636,-0.001 0.638,-0.001 0.64,-0C0.64,-0 0.636,0.003 0.631,0.007L0.627,0.005L0.629,0.008C0.626,0.01 0.623,0.011 0.62,0.012L0.62,0.008L0.619,0.013C0.616,0.014 0.613,0.013 0.611,0.012L0.611,0.011L0.612,0.008L0.609,0.01C0.608,0.008 0.608,0.006 0.608,0.002C0.608,-0.002 0.608,-0.007 0.61,-0.014Z" style="fill:url(#_Linear21);fill-rule:nonzero;"/>
        </g>
        <g transform="matrix(159.337,776.934,776.934,-159.337,358.413,0.262038)">
            <path d="M0.431,0.002C0.432,0.001 0.433,0 0.433,-0C0.433,-0 0.432,-0 0.432,-0L0.433,-0C0.433,-0 0.433,-0 0.433,-0C0.433,-0 0.433,-0 0.433,-0L0.433,-0.002C0.433,-0.003 0.434,-0.005 0.434,-0.005L0.434,-0.005L0.434,-0.005C0.435,-0.005 0.495,-0.003 0.499,-0.002C0.5,-0.002 0.5,-0.003 0.5,-0.003L0.5,-0.003C0.5,-0.003 0.5,-0.003 0.5,-0.003C0.501,-0.003 0.508,-0.002 0.513,-0.002C0.513,-0.002 0.513,-0.002 0.513,-0.002L0.514,-0.002C0.514,-0.002 0.514,-0.002 0.514,-0.002C0.515,-0.002 0.523,-0.002 0.528,-0.001C0.529,-0.002 0.529,-0.002 0.529,-0.002L0.529,-0.002C0.529,-0.002 0.529,-0.002 0.529,-0.002C0.53,-0.002 0.54,-0.001 0.545,-0.001C0.545,-0.001 0.545,-0.001 0.545,-0.001L0.545,-0.001C0.545,-0.001 0.545,-0.001 0.545,-0.001C0.546,-0.001 0.558,-0.001 0.563,-0.001C0.563,-0.001 0.563,-0.001 0.563,-0.001L0.563,-0.001C0.563,-0.001 0.563,-0.001 0.563,-0.001C0.565,-0.001 0.578,-0.001 0.583,-0C0.583,-0.001 0.583,-0.001 0.583,-0.001L0.583,-0.001C0.583,-0.001 0.583,-0.001 0.583,-0.001C0.585,-0.001 0.6,-0.001 0.604,-0C0.604,-0.001 0.604,-0.001 0.604,-0.001L0.604,-0.001C0.604,-0.001 0.604,-0.001 0.604,-0.001C0.606,-0.001 0.626,-0.001 0.627,-0C0.627,-0 0.627,-0 0.627,-0C0.627,-0.001 0.628,-0.001 0.628,-0.001L0.628,-0.001C0.628,-0.001 0.628,-0.001 0.628,-0.001C0.629,-0.001 0.645,-0.002 0.65,-0.001C0.65,-0.002 0.65,-0.002 0.65,-0.002L0.65,-0.002C0.65,-0.002 0.65,-0.002 0.65,-0.002C0.652,-0.002 0.667,-0.002 0.673,-0.002C0.673,-0.002 0.673,-0.002 0.673,-0.002L0.673,-0.003C0.673,-0.003 0.673,-0.002 0.673,-0.002C0.675,-0.002 0.69,-0.003 0.696,-0.003C0.696,-0.003 0.696,-0.003 0.696,-0.003L0.696,-0.003C0.696,-0.003 0.696,-0.003 0.696,-0.003C0.698,-0.003 0.712,-0.004 0.719,-0.004C0.719,-0.004 0.719,-0.004 0.719,-0.004L0.719,-0.004C0.719,-0.004 0.719,-0.004 0.719,-0.004C0.721,-0.004 0.737,-0.005 0.744,-0.005C0.744,-0.005 0.744,-0.006 0.744,-0.006L0.744,-0.006C0.744,-0.006 0.744,-0.006 0.744,-0.006C0.746,-0.006 0.761,-0.007 0.769,-0.006C0.769,-0.007 0.769,-0.007 0.769,-0.007L0.769,-0.007C0.769,-0.007 0.769,-0.007 0.769,-0.007C0.771,-0.007 0.791,-0.008 0.797,-0.008C0.797,-0.008 0.797,-0.009 0.797,-0.009L0.798,-0.009C0.798,-0.009 0.798,-0.009 0.798,-0.009C0.799,-0.009 0.815,-0.01 0.823,-0.01C0.823,-0.01 0.823,-0.01 0.823,-0.01L0.824,-0.01C0.824,-0.01 0.824,-0.01 0.824,-0.01C0.826,-0.01 0.855,-0.012 0.858,-0.011C0.86,-0.01 0.861,-0.008 0.861,-0.005C0.861,-0.005 0.861,-0.005 0.861,-0.004C0.861,-0.004 0.861,-0.004 0.861,-0.004C0.861,-0.004 0.861,-0.004 0.861,-0.004C0.861,-0.003 0.861,-0.001 0.86,0C0.86,0 0.86,0 0.86,0.001C0.86,0.001 0.86,0.001 0.86,0.001C0.86,0.001 0.86,0.002 0.859,0.002C0.859,0.004 0.858,0.006 0.858,0.007C0.858,0.008 0.827,0.009 0.826,0.009C0.825,0.009 0.825,0.009 0.825,0.009C0.825,0.009 0.825,0.009 0.825,0.009C0.816,0.01 0.801,0.01 0.799,0.01C0.799,0.01 0.799,0.01 0.799,0.01C0.799,0.01 0.799,0.01 0.799,0.01C0.791,0.011 0.772,0.011 0.771,0.011C0.77,0.011 0.77,0.011 0.77,0.011C0.762,0.012 0.747,0.012 0.745,0.012C0.745,0.012 0.745,0.012 0.745,0.012C0.745,0.012 0.745,0.012 0.745,0.011C0.738,0.012 0.721,0.012 0.72,0.012C0.72,0.012 0.72,0.012 0.72,0.012C0.72,0.012 0.719,0.012 0.719,0.012C0.719,0.012 0.719,0.012 0.719,0.012C0.712,0.013 0.698,0.013 0.696,0.013C0.696,0.013 0.696,0.013 0.696,0.012C0.689,0.013 0.674,0.013 0.673,0.013C0.673,0.013 0.672,0.013 0.672,0.013C0.666,0.013 0.651,0.013 0.649,0.013C0.649,0.013 0.649,0.013 0.649,0.013C0.649,0.013 0.649,0.013 0.649,0.013C0.643,0.013 0.628,0.013 0.627,0.013C0.626,0.013 0.626,0.013 0.626,0.012C0.626,0.012 0.626,0.012 0.626,0.012C0.623,0.013 0.604,0.013 0.603,0.013C0.603,0.013 0.603,0.013 0.603,0.012C0.603,0.012 0.603,0.012 0.603,0.012C0.598,0.013 0.582,0.012 0.581,0.012C0.581,0.012 0.581,0.012 0.581,0.012C0.576,0.012 0.562,0.012 0.561,0.012C0.561,0.012 0.561,0.011 0.561,0.011C0.561,0.011 0.561,0.011 0.561,0.011C0.555,0.012 0.544,0.011 0.543,0.011C0.543,0.011 0.543,0.011 0.543,0.011C0.537,0.011 0.527,0.01 0.526,0.01C0.526,0.01 0.526,0.01 0.526,0.01C0.52,0.01 0.511,0.009 0.511,0.009C0.51,0.009 0.51,0.009 0.51,0.009C0.505,0.009 0.497,0.008 0.496,0.008C0.496,0.008 0.496,0.008 0.496,0.008C0.492,0.008 0.432,0.005 0.431,0.005C0.431,0.005 0.431,0.005 0.431,0.005C0.431,0.004 0.431,0.003 0.431,0.002Z" style="fill:url(#_Linear22);fill-rule:nonzero;"/>
        </g>
        <g transform="matrix(159.343,776.964,776.964,-159.343,385.679,-5.55767)">
            <path d="M0.375,0.017C0.381,0.007 0.382,0.002 0.39,-0.007C0.396,-0.015 0.428,-0.039 0.435,-0.037C0.432,-0.03 0.432,-0.022 0.431,-0.014C0.425,-0.013 0.419,-0.011 0.417,-0.011C0.414,-0.011 0.422,-0.011 0.431,-0.011C0.43,-0.006 0.428,-0 0.425,0.004C0.424,0.005 0.423,0.007 0.422,0.008L0.404,0.001C0.404,0.001 0.413,0.005 0.42,0.01C0.417,0.013 0.413,0.016 0.41,0.019C0.407,0.021 0.404,0.023 0.401,0.026C0.397,0.023 0.394,0.019 0.39,0.015C0.392,0.019 0.393,0.023 0.395,0.027C0.388,0.028 0.382,0.032 0.377,0.036C0.375,0.032 0.376,0.031 0.372,0.027C0.371,0.032 0.372,0.034 0.369,0.038C0.367,0.041 0.354,0.041 0.35,0.042C0.355,0.035 0.369,0.024 0.375,0.017Z" style="fill:url(#_Linear23);fill-rule:nonzero;"/>
        </g>
        <g transform="matrix(159.337,776.935,776.935,-159.337,336.979,4.44274)">
            <path d="M0.436,0.009C0.438,0.008 0.444,0.005 0.446,0.005C0.443,0.005 0.442,0.004 0.439,0.004C0.439,0.004 0.438,0.004 0.438,0.004C0.438,0.003 0.438,0.002 0.439,0.001C0.44,-0.001 0.442,-0.004 0.446,-0.007C0.448,-0.007 0.451,-0.008 0.452,-0.008C0.452,-0.008 0.452,-0.01 0.449,-0.009C0.455,-0.015 0.461,-0.017 0.461,-0.017C0.464,-0.017 0.468,-0.017 0.47,-0.017C0.467,-0.018 0.465,-0.019 0.465,-0.019C0.475,-0.026 0.485,-0.028 0.49,-0.028C0.492,-0.028 0.493,-0.028 0.493,-0.028C0.495,-0.029 0.494,-0.028 0.493,-0.027C0.493,-0.027 0.492,-0.026 0.492,-0.026C0.485,-0.02 0.478,-0.007 0.478,-0.006C0.477,-0.007 0.475,-0.01 0.475,-0.01C0.474,-0.009 0.47,0 0.47,0C0.465,0.005 0.465,0.007 0.463,0.012C0.46,0.01 0.46,0.005 0.46,0.004C0.458,0.008 0.459,0.013 0.459,0.013C0.459,0.013 0.459,0.014 0.46,0.015C0.46,0.016 0.46,0.016 0.46,0.017C0.45,0.02 0.445,0.03 0.445,0.03C0.438,0.027 0.436,0.024 0.435,0.02C0.434,0.017 0.435,0.013 0.436,0.009ZM0.461,-0.017L0.461,-0.017L0.461,-0.017L0.461,-0.017L0.461,-0.017Z" style="fill:url(#_Linear24);fill-rule:nonzero;"/>
        </g>
        <g transform="matrix(159.333,776.918,776.918,-159.333,408.563,-10.233)">
            <path d="M0.415,0.002C0.41,-0.031 0.423,-0.055 0.443,-0.073C0.443,-0.073 0.448,-0.063 0.445,-0.053L0.44,-0.051L0.443,-0.048C0.443,-0.048 0.437,-0.034 0.436,-0.022L0.428,-0.017L0.436,-0.014C0.436,-0.014 0.438,-0.005 0.441,0.006C0.437,0.008 0.432,0.012 0.432,0.012L0.443,0.014C0.446,0.022 0.448,0.029 0.451,0.032L0.449,0.04L0.458,0.041L0.462,0.073C0.462,0.073 0.422,0.038 0.415,0.006C0.415,0.005 0.415,0.003 0.415,0.002Z" style="fill:url(#_Linear25);fill-rule:nonzero;"/>
        </g>
        <g transform="matrix(159.339,776.948,776.948,-159.339,324.575,6.98156)">
            <path d="M0.434,-0.02C0.449,-0.045 0.5,-0.051 0.5,-0.051L0.492,-0.032L0.479,-0.038L0.478,-0.031C0.474,-0.029 0.47,-0.024 0.465,-0.019L0.454,-0.021C0.454,-0.021 0.457,-0.017 0.46,-0.013C0.454,-0.006 0.449,0.002 0.449,0.002L0.44,0.001L0.446,0.007C0.443,0.018 0.444,0.031 0.444,0.031L0.44,0.033L0.444,0.036C0.443,0.045 0.436,0.051 0.436,0.051C0.431,0.043 0.428,0.035 0.426,0.026C0.423,0.012 0.425,-0.004 0.434,-0.02Z" style="fill:url(#_Linear26);fill-rule:nonzero;"/>
        </g>
        <g transform="matrix(159.336,776.934,776.934,-159.336,321.424,7.63364)">
            <path d="M0.389,-0.008L0.402,-0.004L0.388,-0.012C0.388,-0.012 0.386,-0.026 0.395,-0.038C0.395,-0.038 0.4,-0.045 0.406,-0.051C0.406,-0.051 0.416,-0.046 0.416,-0.044C0.416,-0.043 0.416,-0.042 0.416,-0.041C0.413,-0.039 0.41,-0.033 0.408,-0.029L0.417,-0.04C0.418,-0.036 0.42,-0.031 0.423,-0.027C0.423,-0.027 0.418,-0.014 0.418,-0.007C0.418,-0.007 0.421,-0.017 0.427,-0.021L0.437,0.007C0.437,0.007 0.434,0.014 0.432,0.016C0.432,0.016 0.436,0.012 0.439,0.011C0.439,0.011 0.436,0.034 0.434,0.044C0.434,0.044 0.433,0.05 0.43,0.048C0.43,0.048 0.43,0.048 0.43,0.048C0.43,0.048 0.41,0.049 0.403,0.034C0.403,0.034 0.406,0.031 0.41,0.031C0.41,0.031 0.405,0.031 0.401,0.029C0.401,0.029 0.396,0.021 0.392,0.012C0.395,0.013 0.398,0.014 0.398,0.014C0.397,0.013 0.394,0.012 0.392,0.011C0.39,0.008 0.39,0.005 0.389,0.002C0.388,-0.001 0.388,-0.005 0.389,-0.008Z" style="fill:url(#_Linear27);fill-rule:nonzero;"/>
        </g>
        <g transform="matrix(159.326,776.885,776.885,-159.326,399.431,-8.34223)">
            <path d="M0.434,-0.056C0.444,-0.029 0.457,-0.013 0.479,0.009C0.472,0.011 0.464,0.014 0.464,0.014C0.464,0.014 0.474,0.018 0.482,0.017C0.483,0.02 0.484,0.023 0.485,0.026C0.477,0.025 0.472,0.026 0.472,0.026C0.472,0.026 0.477,0.028 0.487,0.029C0.491,0.04 0.5,0.053 0.5,0.053C0.5,0.053 0.493,0.055 0.486,0.055C0.48,0.049 0.478,0.048 0.478,0.048C0.478,0.048 0.478,0.048 0.482,0.055C0.47,0.053 0.462,0.048 0.456,0.04C0.457,0.037 0.458,0.035 0.458,0.033C0.458,0.033 0.457,0.034 0.454,0.038C0.451,0.033 0.443,0.026 0.441,0.019C0.442,0.017 0.444,0.016 0.444,0.014C0.444,0.014 0.441,0.018 0.439,0.014C0.438,0.01 0.436,0.006 0.435,0.001C0.431,-0.02 0.433,-0.045 0.434,-0.056Z" style="fill:url(#_Linear28);fill-rule:nonzero;"/>
        </g>
        <g transform="matrix(159.339,776.946,776.946,-159.339,366.49,-1.61553)">
            <path d="M0.455,-0.014C0.455,-0.013 0.457,-0.012 0.459,-0.01L0.457,-0.006L0.461,-0.009C0.463,-0.008 0.465,-0.007 0.467,-0.006L0.461,0L0.473,-0.005C0.475,-0.004 0.478,-0.003 0.481,-0.003L0.474,0.002L0.486,-0.002C0.488,-0.001 0.49,-0.001 0.492,-0.001C0.492,-0.001 0.487,0.003 0.481,0.007L0.477,0.005L0.478,0.008C0.475,0.01 0.471,0.011 0.468,0.012L0.467,0.008L0.466,0.013C0.462,0.014 0.458,0.014 0.455,0.012L0.456,0.011L0.457,0.008L0.453,0.01C0.453,0.009 0.452,0.008 0.452,0.006C0.451,0.002 0.452,-0.005 0.455,-0.014Z" style="fill:url(#_Linear29);fill-rule:nonzero;"/>
        </g>
        <g transform="matrix(159.338,776.94,776.94,-159.338,346.075,2.57335)">
            <path d="M0.453,0.003L0.457,0.002L0.455,0C0.457,-0.003 0.46,-0.006 0.462,-0.008L0.465,-0.005L0.464,-0.009C0.467,-0.012 0.471,-0.013 0.474,-0.013L0.473,-0.012L0.474,-0.008L0.476,-0.012C0.48,-0.009 0.483,-0.003 0.485,0.01C0.484,0.01 0.482,0.009 0.48,0.009L0.48,0.004L0.477,0.008C0.475,0.008 0.473,0.008 0.47,0.009L0.473,0L0.465,0.009C0.462,0.01 0.46,0.01 0.457,0.011L0.461,0.003L0.452,0.012C0.45,0.013 0.448,0.013 0.446,0.014C0.446,0.014 0.449,0.008 0.453,0.003Z" style="fill:url(#_Linear30);fill-rule:nonzero;"/>
        </g>
        <g transform="matrix(159.33,776.901,776.901,-159.33,389.787,-6.37381)">
            <path d="M0.425,-0.039C0.436,-0.039 0.447,-0.038 0.456,-0.035C0.456,-0.034 0.456,-0.033 0.456,-0.032C0.458,-0.031 0.461,-0.03 0.464,-0.029L0.461,-0.02L0.469,-0.027C0.472,-0.025 0.476,-0.023 0.479,-0.022L0.475,-0.01L0.48,-0.021C0.481,-0.02 0.486,-0.019 0.487,-0.018C0.487,-0.017 0.487,-0.016 0.487,-0.015C0.487,-0.013 0.486,-0.012 0.487,-0.011C0.489,-0.012 0.492,-0.012 0.495,-0.012C0.495,-0.012 0.496,-0.008 0.5,-0.001L0.491,0.005C0.491,0.005 0.497,0.005 0.502,0.004C0.504,0.007 0.506,0.011 0.508,0.014C0.512,0.017 0.516,0.018 0.516,0.018C0.516,0.02 0.515,0.022 0.515,0.023C0.517,0.022 0.518,0.022 0.52,0.021C0.527,0.027 0.527,0.039 0.527,0.039C0.505,0.035 0.488,0.029 0.469,0.014C0.46,0.006 0.452,-0.008 0.443,-0.019C0.434,-0.031 0.425,-0.039 0.425,-0.039C0.425,-0.039 0.425,-0.039 0.425,-0.039Z" style="fill:url(#_Linear31);fill-rule:nonzero;"/>
        </g>
        <g transform="matrix(159.334,776.923,776.923,-159.334,355.748,0.599078)">
            <path d="M0.37,-0.018C0.37,-0.018 0.371,-0.018 0.371,-0.018C0.373,-0.014 0.377,-0.01 0.38,-0.006L0.373,-0.018C0.375,-0.018 0.378,-0.018 0.382,-0.019C0.382,-0.019 0.391,-0.011 0.396,-0.009C0.396,-0.009 0.389,-0.014 0.386,-0.021L0.405,-0.018C0.417,-0.011 0.42,-0.008 0.427,0.004C0.425,0.007 0.412,0.02 0.408,0.021C0.409,0.018 0.409,0.015 0.409,0.015C0.409,0.016 0.408,0.018 0.407,0.021C0.403,0.021 0.398,0.02 0.394,0.018L0.397,0.006L0.391,0.017C0.391,0.017 0.382,0.015 0.373,0.002C0.373,0.002 0.369,-0.004 0.364,-0.011C0.364,-0.011 0.368,-0.019 0.37,-0.018Z" style="fill:url(#_Linear32);fill-rule:nonzero;"/>
        </g>
        <g transform="matrix(-92.4747,787.7,787.7,92.4747,229.416,-37.8175)">
            <path d="M0.473,-0.005C0.474,-0.005 0.535,-0.008 0.54,-0.008C0.54,-0.008 0.54,-0.008 0.54,-0.008C0.541,-0.008 0.549,-0.009 0.554,-0.009C0.555,-0.009 0.555,-0.009 0.555,-0.009C0.555,-0.009 0.565,-0.01 0.57,-0.01C0.57,-0.01 0.57,-0.01 0.57,-0.01C0.571,-0.01 0.582,-0.011 0.587,-0.011C0.587,-0.011 0.588,-0.011 0.588,-0.011C0.589,-0.011 0.6,-0.012 0.606,-0.012C0.606,-0.012 0.606,-0.012 0.606,-0.012C0.606,-0.012 0.606,-0.012 0.606,-0.012C0.607,-0.012 0.621,-0.012 0.627,-0.012C0.627,-0.012 0.627,-0.012 0.627,-0.012C0.628,-0.012 0.644,-0.013 0.649,-0.012C0.649,-0.013 0.649,-0.013 0.649,-0.013C0.649,-0.013 0.649,-0.013 0.649,-0.013C0.65,-0.013 0.669,-0.013 0.673,-0.013C0.673,-0.013 0.673,-0.013 0.673,-0.013C0.673,-0.013 0.673,-0.013 0.673,-0.013C0.675,-0.013 0.69,-0.014 0.696,-0.013C0.696,-0.013 0.696,-0.013 0.696,-0.013C0.696,-0.013 0.697,-0.013 0.697,-0.013C0.698,-0.013 0.713,-0.013 0.72,-0.013C0.72,-0.013 0.72,-0.013 0.72,-0.013C0.722,-0.013 0.737,-0.013 0.744,-0.013C0.744,-0.013 0.745,-0.013 0.745,-0.013C0.746,-0.013 0.76,-0.013 0.768,-0.012C0.768,-0.012 0.768,-0.012 0.768,-0.012C0.768,-0.012 0.768,-0.012 0.768,-0.012C0.768,-0.013 0.768,-0.013 0.768,-0.013C0.77,-0.013 0.787,-0.012 0.794,-0.012C0.794,-0.012 0.794,-0.012 0.795,-0.012C0.795,-0.012 0.795,-0.012 0.795,-0.012C0.796,-0.012 0.812,-0.012 0.82,-0.011C0.82,-0.011 0.82,-0.011 0.82,-0.011C0.822,-0.011 0.842,-0.011 0.849,-0.01C0.849,-0.01 0.85,-0.01 0.85,-0.01C0.85,-0.01 0.85,-0.01 0.85,-0.01C0.851,-0.01 0.867,-0.01 0.876,-0.009C0.876,-0.009 0.876,-0.009 0.876,-0.009C0.877,-0.009 0.877,-0.009 0.877,-0.009C0.879,-0.009 0.91,-0.009 0.909,-0.007C0.91,-0.006 0.911,-0.004 0.911,-0.002L0.912,-0C0.913,0.001 0.913,0.003 0.913,0.004C0.913,0.004 0.913,0.004 0.913,0.004C0.913,0.004 0.913,0.004 0.913,0.004C0.913,0.005 0.913,0.005 0.913,0.006C0.913,0.008 0.912,0.01 0.91,0.011C0.906,0.013 0.877,0.011 0.875,0.011C0.875,0.011 0.875,0.011 0.875,0.011L0.875,0.011C0.874,0.011 0.874,0.01 0.874,0.01C0.866,0.01 0.85,0.009 0.848,0.009C0.848,0.009 0.848,0.009 0.848,0.009L0.848,0.009C0.848,0.009 0.848,0.008 0.848,0.008C0.841,0.008 0.821,0.007 0.819,0.007C0.819,0.007 0.819,0.007 0.819,0.007L0.819,0.007C0.819,0.007 0.819,0.007 0.819,0.006C0.811,0.007 0.795,0.006 0.794,0.006C0.794,0.006 0.794,0.006 0.794,0.006L0.794,0.006C0.794,0.006 0.794,0.005 0.794,0.005C0.787,0.005 0.77,0.004 0.768,0.004C0.768,0.004 0.768,0.004 0.768,0.004L0.768,0.004C0.768,0.004 0.768,0.004 0.768,0.004C0.76,0.004 0.746,0.003 0.745,0.003C0.745,0.003 0.745,0.003 0.745,0.003L0.744,0.003C0.744,0.003 0.744,0.003 0.744,0.003C0.738,0.003 0.722,0.003 0.721,0.003C0.721,0.003 0.721,0.003 0.721,0.003L0.72,0.003C0.72,0.003 0.72,0.002 0.72,0.002C0.714,0.002 0.699,0.002 0.697,0.002C0.697,0.002 0.697,0.002 0.697,0.002L0.697,0.002C0.697,0.002 0.697,0.002 0.697,0.001C0.692,0.002 0.676,0.001 0.674,0.001C0.674,0.001 0.674,0.001 0.674,0.001L0.674,0.001C0.674,0.001 0.674,0.001 0.674,0C0.674,0 0.674,0 0.674,0C0.673,0.001 0.652,0.001 0.651,0.001C0.651,0.001 0.651,0.001 0.651,0.001L0.65,0.001C0.65,0.001 0.65,0.001 0.65,0C0.647,0.001 0.63,0.001 0.629,0.001C0.629,0.001 0.629,0.001 0.629,0.001L0.629,0.001C0.629,0.001 0.629,0.001 0.628,0C0.624,0.001 0.61,0.001 0.609,0.001C0.609,0.001 0.609,0.001 0.609,0.001L0.608,0.001C0.608,0.001 0.608,0.001 0.608,0.001C0.603,0.001 0.591,0.001 0.59,0.001C0.59,0.001 0.59,0.001 0.59,0.001L0.59,0.001C0.59,0.001 0.59,0.001 0.59,0.001C0.585,0.001 0.574,0.002 0.573,0.002C0.573,0.002 0.573,0.002 0.573,0.002L0.573,0.002C0.573,0.002 0.573,0.002 0.573,0.001C0.568,0.002 0.559,0.002 0.558,0.002C0.558,0.002 0.558,0.002 0.558,0.002L0.558,0.002C0.558,0.002 0.558,0.002 0.557,0.002C0.552,0.002 0.545,0.003 0.544,0.003C0.544,0.003 0.544,0.003 0.544,0.003L0.543,0.003C0.543,0.003 0.543,0.002 0.543,0.002C0.539,0.003 0.478,0.005 0.477,0.005L0.477,0.005L0.477,0.005C0.477,0.005 0.476,0.004 0.476,0.003C0.476,0.002 0.476,0.001 0.476,0.001C0.476,0.001 0.476,0 0.476,0L0.476,0C0.476,0 0.476,0 0.476,0C0.476,0 0.476,0 0.476,0L0.474,0C0.475,0 0.475,0 0.476,0C0.475,-0 0.474,-0.001 0.474,-0.002C0.473,-0.003 0.473,-0.004 0.473,-0.005C0.473,-0.005 0.473,-0.005 0.473,-0.005Z" style="fill:url(#_Linear33);fill-rule:nonzero;"/>
        </g>
        <g transform="matrix(-92.4755,787.707,787.707,92.4755,185.27,-43.0052)">
            <path d="M0.443,-0.042C0.444,-0.04 0.443,-0.038 0.443,-0.036C0.442,-0.034 0.442,-0.033 0.442,-0.031C0.447,-0.034 0.446,-0.034 0.45,-0.038C0.453,-0.032 0.457,-0.026 0.463,-0.022C0.459,-0.02 0.457,-0.016 0.454,-0.013C0.459,-0.015 0.464,-0.018 0.469,-0.019C0.47,-0.015 0.472,-0.012 0.474,-0.009C0.476,-0.005 0.479,-0.001 0.481,0.004C0.471,0.006 0.462,0.005 0.462,0.005L0.482,0.006C0.482,0.008 0.483,0.01 0.483,0.011C0.484,0.016 0.484,0.022 0.482,0.028C0.474,0.024 0.467,0.021 0.469,0.022C0.471,0.023 0.476,0.027 0.481,0.031C0.479,0.038 0.477,0.046 0.476,0.053C0.468,0.053 0.448,0.018 0.445,0.008C0.442,-0.004 0.442,-0.009 0.44,-0.021C0.438,-0.03 0.428,-0.045 0.426,-0.053C0.43,-0.052 0.442,-0.046 0.443,-0.042Z" style="fill:url(#_Linear34);fill-rule:nonzero;"/>
        </g>
        <g transform="matrix(-92.4778,787.727,787.727,92.4778,251.593,-35.2266)">
            <path d="M0.488,-0.03C0.488,-0.03 0.492,-0.021 0.503,-0.017C0.503,-0.017 0.503,-0.016 0.502,-0.015C0.502,-0.015 0.501,-0.014 0.502,-0.013C0.502,-0.013 0.5,-0.008 0.502,-0.004C0.502,-0.005 0.503,-0.01 0.506,-0.012C0.508,-0.007 0.508,-0.005 0.513,-0C0.513,-0 0.517,0.01 0.518,0.011C0.518,0.011 0.52,0.007 0.521,0.006C0.521,0.007 0.529,0.02 0.536,0.027C0.536,0.027 0.536,0.027 0.537,0.028C0.538,0.029 0.538,0.03 0.536,0.029C0.536,0.029 0.535,0.029 0.533,0.029C0.528,0.028 0.518,0.026 0.508,0.019C0.508,0.019 0.51,0.018 0.513,0.018C0.511,0.018 0.507,0.018 0.504,0.017C0.504,0.017 0.498,0.015 0.491,0.01C0.494,0.01 0.495,0.008 0.495,0.008C0.493,0.008 0.491,0.007 0.488,0.007C0.485,0.004 0.482,0.001 0.481,-0.001C0.48,-0.002 0.48,-0.003 0.48,-0.004C0.481,-0.004 0.481,-0.004 0.481,-0.004C0.484,-0.004 0.485,-0.005 0.489,-0.005C0.486,-0.005 0.48,-0.009 0.478,-0.009C0.478,-0.013 0.477,-0.016 0.477,-0.02C0.477,-0.024 0.48,-0.028 0.488,-0.03ZM0.504,0.017L0.504,0.017L0.504,0.017Z" style="fill:url(#_Linear35);fill-rule:nonzero;"/>
        </g>
        <g transform="matrix(-92.4727,787.683,787.683,92.4727,177.404,-43.9181)">
            <path d="M0.456,-0.002C0.461,-0.036 0.504,-0.074 0.504,-0.074L0.5,-0.042L0.492,-0.041L0.494,-0.033C0.491,-0.03 0.488,-0.023 0.486,-0.015L0.475,-0.012C0.475,-0.012 0.479,-0.009 0.483,-0.006C0.48,0.005 0.478,0.015 0.478,0.015L0.47,0.018L0.478,0.022C0.479,0.035 0.486,0.049 0.486,0.049L0.482,0.052L0.488,0.054C0.49,0.064 0.486,0.074 0.486,0.074C0.465,0.057 0.452,0.032 0.456,-0.001C0.456,-0.002 0.456,-0.002 0.456,-0.002Z" style="fill:url(#_Linear36);fill-rule:nonzero;"/>
        </g>
        <g transform="matrix(-92.4761,787.712,787.712,92.4761,273.586,-32.6361)">
            <path d="M0.488,-0.049C0.488,-0.049 0.497,-0.045 0.5,-0.036L0.496,-0.031L0.501,-0.031C0.501,-0.031 0.502,-0.017 0.508,-0.007L0.504,0L0.512,-0.002C0.512,-0.002 0.519,0.004 0.527,0.01C0.525,0.014 0.523,0.019 0.523,0.019L0.533,0.014C0.539,0.019 0.545,0.022 0.549,0.023L0.552,0.03L0.563,0.021L0.576,0.039C0.576,0.039 0.524,0.044 0.503,0.022C0.487,0.005 0.482,-0.013 0.484,-0.032C0.485,-0.038 0.486,-0.043 0.488,-0.049Z" style="fill:url(#_Linear37);fill-rule:nonzero;"/>
        </g>
        <g transform="matrix(-92.4754,787.706,787.706,92.4754,275.474,-32.4107)">
            <path d="M0.428,-0.013C0.431,-0.014 0.434,-0.015 0.436,-0.016C0.436,-0.016 0.432,-0.015 0.428,-0.015C0.433,-0.026 0.438,-0.035 0.438,-0.035C0.443,-0.037 0.45,-0.038 0.45,-0.038C0.445,-0.037 0.442,-0.041 0.442,-0.041C0.449,-0.059 0.473,-0.057 0.473,-0.057C0.473,-0.058 0.474,-0.058 0.474,-0.058C0.478,-0.06 0.478,-0.053 0.478,-0.053C0.481,-0.041 0.484,-0.013 0.484,-0.013C0.481,-0.014 0.476,-0.019 0.476,-0.019C0.478,-0.017 0.482,-0.008 0.482,-0.008L0.47,0.025C0.462,0.02 0.459,0.008 0.459,0.008C0.459,0.017 0.465,0.032 0.465,0.032C0.462,0.038 0.459,0.043 0.458,0.047L0.447,0.034C0.45,0.039 0.453,0.046 0.457,0.049C0.457,0.05 0.457,0.052 0.456,0.053C0.456,0.054 0.445,0.061 0.445,0.061C0.438,0.054 0.432,0.045 0.432,0.045C0.421,0.031 0.423,0.014 0.423,0.014L0.44,0.005L0.424,0.009C0.424,0.007 0.424,0.004 0.424,0.001C0.424,-0.003 0.426,-0.008 0.428,-0.013Z" style="fill:url(#_Linear38);fill-rule:nonzero;"/>
        </g>
        <g transform="matrix(-92.4703,787.662,787.662,92.4703,186.87,-42.796)">
            <path d="M0.481,-0.015C0.483,-0.018 0.486,-0.014 0.486,-0.014C0.486,-0.017 0.484,-0.017 0.483,-0.019C0.485,-0.026 0.493,-0.034 0.497,-0.039C0.5,-0.035 0.5,-0.034 0.5,-0.034C0.5,-0.035 0.5,-0.037 0.499,-0.041C0.505,-0.049 0.513,-0.054 0.525,-0.056C0.521,-0.049 0.522,-0.049 0.522,-0.049C0.522,-0.049 0.523,-0.05 0.529,-0.056C0.537,-0.057 0.544,-0.054 0.544,-0.054C0.544,-0.054 0.534,-0.041 0.53,-0.03C0.52,-0.029 0.515,-0.027 0.515,-0.027C0.515,-0.027 0.521,-0.026 0.528,-0.026C0.527,-0.023 0.526,-0.02 0.525,-0.018C0.517,-0.019 0.507,-0.014 0.507,-0.014C0.507,-0.014 0.515,-0.012 0.523,-0.009C0.499,0.013 0.486,0.03 0.476,0.057C0.476,0.047 0.474,0.028 0.476,0.008C0.477,0 0.479,-0.008 0.481,-0.015Z" style="fill:url(#_Linear39);fill-rule:nonzero;"/>
        </g>
        <g transform="matrix(-92.4763,787.714,787.714,92.4763,221.008,-38.8145)">
            <path d="M0.496,-0.01L0.5,-0.008L0.499,-0.011L0.498,-0.012C0.501,-0.014 0.504,-0.014 0.508,-0.013L0.51,-0.008L0.511,-0.012C0.514,-0.011 0.518,-0.01 0.521,-0.008L0.52,-0.005L0.524,-0.007C0.53,-0.003 0.535,0.001 0.535,0.001C0.533,0.001 0.531,0.001 0.529,0.002L0.517,-0.002L0.524,0.003C0.521,0.003 0.518,0.004 0.516,0.005L0.504,-0L0.51,0.006C0.508,0.007 0.505,0.008 0.504,0.009L0.5,0.006L0.501,0.011C0.499,0.012 0.498,0.013 0.497,0.014C0.495,0.006 0.494,-0.001 0.494,-0.005C0.495,-0.007 0.495,-0.009 0.496,-0.01Z" style="fill:url(#_Linear40);fill-rule:nonzero;"/>
        </g>
        <g transform="matrix(-92.4711,787.669,787.669,92.4711,242.159,-36.3059)">
            <path d="M0.494,-0.012L0.504,-0.003L0.499,-0.011C0.502,-0.011 0.505,-0.01 0.508,-0.01L0.516,-0L0.513,-0.009C0.516,-0.009 0.519,-0.008 0.52,-0.009L0.523,-0.004L0.523,-0.009C0.526,-0.009 0.527,-0.01 0.528,-0.011C0.526,0.003 0.523,0.01 0.519,0.012L0.517,0.009L0.516,0.012L0.517,0.013C0.513,0.014 0.51,0.012 0.507,0.01L0.508,0.005L0.505,0.008C0.502,0.006 0.5,0.003 0.497,-0L0.5,-0.003L0.495,-0.003C0.491,-0.009 0.488,-0.014 0.488,-0.014C0.49,-0.013 0.492,-0.013 0.494,-0.012Z" style="fill:url(#_Linear41);fill-rule:nonzero;"/>
        </g>
        <g transform="matrix(-92.4729,787.684,787.684,92.4729,196.864,-41.6316)">
            <path d="M0.485,0.02C0.494,0.008 0.503,-0.006 0.512,-0.014C0.531,-0.03 0.549,-0.036 0.571,-0.04C0.571,-0.04 0.571,-0.028 0.564,-0.022C0.562,-0.022 0.561,-0.023 0.559,-0.024C0.559,-0.022 0.559,-0.02 0.56,-0.019C0.56,-0.019 0.556,-0.017 0.551,-0.015C0.549,-0.011 0.548,-0.008 0.546,-0.004C0.541,-0.005 0.534,-0.005 0.534,-0.005L0.543,0.001C0.54,0.008 0.538,0.013 0.538,0.013C0.535,0.012 0.533,0.012 0.53,0.011C0.53,0.013 0.53,0.014 0.53,0.015C0.53,0.016 0.531,0.017 0.53,0.019C0.529,0.019 0.525,0.021 0.523,0.022L0.518,0.01L0.522,0.022C0.519,0.024 0.515,0.026 0.511,0.027L0.504,0.021L0.506,0.03C0.504,0.031 0.501,0.032 0.498,0.033C0.499,0.034 0.499,0.035 0.499,0.036C0.489,0.039 0.479,0.04 0.467,0.04C0.467,0.04 0.467,0.04 0.467,0.04C0.467,0.04 0.476,0.031 0.485,0.02Z" style="fill:url(#_Linear42);fill-rule:nonzero;"/>
        </g>
        <g transform="matrix(-92.4735,787.69,787.69,92.4735,228.924,-37.8695)">
            <path d="M0.411,-0.003C0.422,-0.02 0.435,-0.024 0.435,-0.024L0.443,-0.009L0.44,-0.024C0.445,-0.028 0.451,-0.029 0.457,-0.028C0.458,-0.025 0.459,-0.022 0.46,-0.021C0.46,-0.021 0.459,-0.024 0.459,-0.028C0.464,-0.028 0.481,-0.01 0.484,-0.006C0.475,0.011 0.471,0.016 0.453,0.024L0.428,0.029C0.432,0.02 0.441,0.012 0.441,0.012C0.434,0.014 0.423,0.026 0.423,0.026C0.418,0.025 0.414,0.024 0.41,0.024L0.42,0.008C0.416,0.013 0.411,0.019 0.408,0.024C0.408,0.024 0.407,0.024 0.406,0.025C0.404,0.025 0.399,0.015 0.399,0.015C0.405,0.006 0.411,-0.003 0.411,-0.003Z" style="fill:url(#_Linear43);fill-rule:nonzero;"/>
        </g>
    </g>
    <g id="Vector-Graphics" serif:id="Vector Graphics">
    </g>
    <defs>
        <linearGradient id="_Linear1" x1="0" y1="0" x2="1" y2="0" gradientUnits="userSpaceOnUse" gradientTransform="matrix(1,-6.61744e-24,-6.61744e-24,-1,0,0.000682983)"><stop offset="0" style="stop-color:rgb(243,247,235);stop-opacity:1"/><stop offset="0.01" style="stop-color:rgb(243,247,235);stop-opacity:1"/><stop offset="0.5" style="stop-color:rgb(187,202,114);stop-opacity:1"/><stop offset="1" style="stop-color:rgb(109,184,67);stop-opacity:1"/></linearGradient>
        <linearGradient id="_Linear2" x1="0" y1="0" x2="1" y2="0" gradientUnits="userSpaceOnUse" gradientTransform="matrix(1,0,0,-1,0,-0.0154834)"><stop offset="0" style="stop-color:rgb(243,247,235);stop-opacity:1"/><stop offset="0.01" style="stop-color:rgb(243,247,235);stop-opacity:1"/><stop offset="0.5" style="stop-color:rgb(187,202,114);stop-opacity:1"/><stop offset="1" style="stop-color:rgb(109,184,67);stop-opacity:1"/></linearGradient>
        <linearGradient id="_Linear3" x1="0" y1="0" x2="1" y2="0" gradientUnits="userSpaceOnUse" gradientTransform="matrix(1,0,0,-1,0,6.08373e-08)"><stop offset="0" style="stop-color:rgb(243,247,235);stop-opacity:1"/><stop offset="0.01" style="stop-color:rgb(243,247,235);stop-opacity:1"/><stop offset="0.5" style="stop-color:rgb(187,202,114);stop-opacity:1"/><stop offset="1" style="stop-color:rgb(109,184,67);stop-opacity:1"/></linearGradient>
        <linearGradient id="_Linear4" x1="0" y1="0" x2="1" y2="0" gradientUnits="userSpaceOnUse" gradientTransform="matrix(1,-6.61744e-24,-6.61744e-24,-1,0,0.000865687)"><stop offset="0" style="stop-color:rgb(243,247,235);stop-opacity:1"/><stop offset="0.01" style="stop-color:rgb(243,247,235);stop-opacity:1"/><stop offset="0.5" style="stop-color:rgb(187,202,114);stop-opacity:1"/><stop offset="1" style="stop-color:rgb(109,184,67);stop-opacity:1"/></linearGradient>
        <linearGradient id="_Linear5" x1="0" y1="0" x2="1" y2="0" gradientUnits="userSpaceOnUse" gradientTransform="matrix(1,0,0,-1,0,1.28795e-07)"><stop offset="0" style="stop-color:rgb(243,247,235);stop-opacity:1"/><stop offset="0.01" style="stop-color:rgb(243,247,235);stop-opacity:1"/><stop offset="0.5" style="stop-color:rgb(187,202,114);stop-opacity:1"/><stop offset="1" style="stop-color:rgb(109,184,67);stop-opacity:1"/></linearGradient>
        <linearGradient id="_Linear6" x1="0" y1="0" x2="1" y2="0" gradientUnits="userSpaceOnUse" gradientTransform="matrix(1,6.61744e-24,6.61744e-24,-1,0,-2.9602e-07)"><stop offset="0" style="stop-color:rgb(243,247,235);stop-opacity:1"/><stop offset="0.01" style="stop-color:rgb(243,247,235);stop-opacity:1"/><stop offset="0.5" style="stop-color:rgb(187,202,114);stop-opacity:1"/><stop offset="1" style="stop-color:rgb(109,184,67);stop-opacity:1"/></linearGradient>
        <linearGradient id="_Linear7" x1="0" y1="0" x2="1" y2="0" gradientUnits="userSpaceOnUse" gradientTransform="matrix(1,0,0,-1,0,-2.90789e-05)"><stop offset="0" style="stop-color:rgb(243,247,235);stop-opacity:1"/><stop offset="0.01" style="stop-color:rgb(243,247,235);stop-opacity:1"/><stop offset="0.5" style="stop-color:rgb(187,202,114);stop-opacity:1"/><stop offset="1" style="stop-color:rgb(109,184,67);stop-opacity:1"/></linearGradient>
        <linearGradient id="_Linear8" x1="0" y1="0" x2="1" y2="0" gradientUnits="userSpaceOnUse" gradientTransform="matrix(1,0,0,-1,0,-0.00148277)"><stop offset="0" style="stop-color:rgb(243,247,235);stop-opacity:1"/><stop offset="0.01" style="stop-color:rgb(243,247,235);stop-opacity:1"/><stop offset="0.5" style="stop-color:rgb(187,202,114);stop-opacity:1"/><stop offset="1" style="stop-color:rgb(109,184,67);stop-opacity:1"/></linearGradient>
        <linearGradient id="_Linear9" x1="0" y1="0" x2="1" y2="0" gradientUnits="userSpaceOnUse" gradientTransform="matrix(1,6.61744e-24,6.61744e-24,-1,0,-0.00121478)"><stop offset="0" style="stop-color:rgb(243,247,235);stop-opacity:1"/><stop offset="0.01" style="stop-color:rgb(243,247,235);stop-opacity:1"/><stop offset="0.5" style="stop-color:rgb(187,202,114);stop-opacity:1"/><stop offset="1" style="stop-color:rgb(109,184,67);stop-opacity:1"/></linearGradient>
        <linearGradient id="_Linear10" x1="0" y1="0" x2="1" y2="0" gradientUnits="userSpaceOnUse" gradientTransform="matrix(1,0,0,-1,0,-0.00290764)"><stop offset="0" style="stop-color:rgb(243,247,235);stop-opacity:1"/><stop offset="0.01" style="stop-color:rgb(243,247,235);stop-opacity:1"/><stop offset="0.5" style="stop-color:rgb(187,202,114);stop-opacity:1"/><stop offset="1" style="stop-color:rgb(109,184,67);stop-opacity:1"/></linearGradient>
        <linearGradient id="_Linear11" x1="0" y1="0" x2="1" y2="0" gradientUnits="userSpaceOnUse" gradientTransform="matrix(1,6.61744e-24,6.61744e-24,-1,0,-2.38196e-07)"><stop offset="0" style="stop-color:rgb(243,247,235);stop-opacity:1"/><stop offset="0.01" style="stop-color:rgb(243,247,235);stop-opacity:1"/><stop offset="0.5" style="stop-color:rgb(187,202,114);stop-opacity:1"/><stop offset="1" style="stop-color:rgb(109,184,67);stop-opacity:1"/></linearGradient>
        <linearGradient id="_Linear12" x1="0" y1="0" x2="1" y2="0" gradientUnits="userSpaceOnUse" gradientTransform="matrix(1,-6.61744e-24,-6.61744e-24,-1,0,0.000492932)"><stop offset="0" style="stop-color:rgb(245,248,238);stop-opacity:1"/><stop offset="0.01" style="stop-color:rgb(245,248,238);stop-opacity:1"/><stop offset="0.5" style="stop-color:rgb(199,210,138);stop-opacity:1"/><stop offset="1" style="stop-color:rgb(134,196,98);stop-opacity:1"/></linearGradient>
        <linearGradient id="_Linear13" x1="0" y1="0" x2="1" y2="0" gradientUnits="userSpaceOnUse" gradientTransform="matrix(1,0,0,-1,0,3.46402e-07)"><stop offset="0" style="stop-color:rgb(245,248,238);stop-opacity:1"/><stop offset="0.01" style="stop-color:rgb(245,248,238);stop-opacity:1"/><stop offset="0.5" style="stop-color:rgb(199,210,138);stop-opacity:1"/><stop offset="1" style="stop-color:rgb(134,196,98);stop-opacity:1"/></linearGradient>
        <linearGradient id="_Linear14" x1="0" y1="0" x2="1" y2="0" gradientUnits="userSpaceOnUse" gradientTransform="matrix(1,0,0,-1,0,0.000396716)"><stop offset="0" style="stop-color:rgb(245,248,238);stop-opacity:1"/><stop offset="0.01" style="stop-color:rgb(245,248,238);stop-opacity:1"/><stop offset="0.5" style="stop-color:rgb(199,210,138);stop-opacity:1"/><stop offset="1" style="stop-color:rgb(134,196,98);stop-opacity:1"/></linearGradient>
        <linearGradient id="_Linear15" x1="0" y1="0" x2="1" y2="0" gradientUnits="userSpaceOnUse" gradientTransform="matrix(1,6.61744e-24,6.61744e-24,-1,0,1.40961e-06)"><stop offset="0" style="stop-color:rgb(245,248,238);stop-opacity:1"/><stop offset="0.01" style="stop-color:rgb(245,248,238);stop-opacity:1"/><stop offset="0.5" style="stop-color:rgb(199,210,138);stop-opacity:1"/><stop offset="1" style="stop-color:rgb(134,196,98);stop-opacity:1"/></linearGradient>
        <linearGradient id="_Linear16" x1="0" y1="0" x2="1" y2="0" gradientUnits="userSpaceOnUse" gradientTransform="matrix(1,-6.61744e-24,-6.61744e-24,-1,0,-8.17483e-07)"><stop offset="0" style="stop-color:rgb(245,248,238);stop-opacity:1"/><stop offset="0.01" style="stop-color:rgb(245,248,238);stop-opacity:1"/><stop offset="0.5" style="stop-color:rgb(199,210,138);stop-opacity:1"/><stop offset="1" style="stop-color:rgb(134,196,98);stop-opacity:1"/></linearGradient>
        <linearGradient id="_Linear17" x1="0" y1="0" x2="1" y2="0" gradientUnits="userSpaceOnUse" gradientTransform="matrix(1,0,0,-1,0,-2.17392e-05)"><stop offset="0" style="stop-color:rgb(245,248,238);stop-opacity:1"/><stop offset="0.01" style="stop-color:rgb(245,248,238);stop-opacity:1"/><stop offset="0.5" style="stop-color:rgb(199,210,138);stop-opacity:1"/><stop offset="1" style="stop-color:rgb(134,196,98);stop-opacity:1"/></linearGradient>
        <linearGradient id="_Linear18" x1="0" y1="0" x2="1" y2="0" gradientUnits="userSpaceOnUse" gradientTransform="matrix(1,0,0,-1,0,0.00124171)"><stop offset="0" style="stop-color:rgb(245,248,238);stop-opacity:1"/><stop offset="0.01" style="stop-color:rgb(245,248,238);stop-opacity:1"/><stop offset="0.5" style="stop-color:rgb(199,210,138);stop-opacity:1"/><stop offset="1" style="stop-color:rgb(134,196,98);stop-opacity:1"/></linearGradient>
        <linearGradient id="_Linear19" x1="0" y1="0" x2="1" y2="0" gradientUnits="userSpaceOnUse" gradientTransform="matrix(1,0,0,-1,0,-0.000876643)"><stop offset="0" style="stop-color:rgb(245,248,238);stop-opacity:1"/><stop offset="0.01" style="stop-color:rgb(245,248,238);stop-opacity:1"/><stop offset="0.5" style="stop-color:rgb(199,210,138);stop-opacity:1"/><stop offset="1" style="stop-color:rgb(134,196,98);stop-opacity:1"/></linearGradient>
        <linearGradient id="_Linear20" x1="0" y1="0" x2="1" y2="0" gradientUnits="userSpaceOnUse" gradientTransform="matrix(1,0,0,-1,0,0.000851109)"><stop offset="0" style="stop-color:rgb(245,248,238);stop-opacity:1"/><stop offset="0.01" style="stop-color:rgb(245,248,238);stop-opacity:1"/><stop offset="0.5" style="stop-color:rgb(199,210,138);stop-opacity:1"/><stop offset="1" style="stop-color:rgb(134,196,98);stop-opacity:1"/></linearGradient>
        <linearGradient id="_Linear21" x1="0" y1="0" x2="1" y2="0" gradientUnits="userSpaceOnUse" gradientTransform="matrix(1,0,0,-1,0,-0.00031129)"><stop offset="0" style="stop-color:rgb(245,248,238);stop-opacity:1"/><stop offset="0.01" style="stop-color:rgb(245,248,238);stop-opacity:1"/><stop offset="0.5" style="stop-color:rgb(199,210,138);stop-opacity:1"/><stop offset="1" style="stop-color:rgb(134,196,98);stop-opacity:1"/></linearGradient>
        <linearGradient id="_Linear22" x1="0" y1="0" x2="1" y2="0" gradientUnits="userSpaceOnUse" gradientTransform="matrix(1,0,0,-1,0,0.000816194)"><stop offset="0" style="stop-color:rgb(243,247,235);stop-opacity:1"/><stop offset="0.01" style="stop-color:rgb(243,247,235);stop-opacity:1"/><stop offset="0.5" style="stop-color:rgb(187,202,114);stop-opacity:1"/><stop offset="1" style="stop-color:rgb(109,184,67);stop-opacity:1"/></linearGradient>
        <linearGradient id="_Linear23" x1="0" y1="0" x2="1" y2="0" gradientUnits="userSpaceOnUse" gradientTransform="matrix(1,0,0,-1,0,0.00233376)"><stop offset="0" style="stop-color:rgb(243,247,235);stop-opacity:1"/><stop offset="0.01" style="stop-color:rgb(243,247,235);stop-opacity:1"/><stop offset="0.5" style="stop-color:rgb(187,202,114);stop-opacity:1"/><stop offset="1" style="stop-color:rgb(109,184,67);stop-opacity:1"/></linearGradient>
        <linearGradient id="_Linear24" x1="0" y1="0" x2="1" y2="0" gradientUnits="userSpaceOnUse" gradientTransform="matrix(1,2.77556e-17,2.77556e-17,-1,0,0.000497729)"><stop offset="0" style="stop-color:rgb(243,247,235);stop-opacity:1"/><stop offset="0.01" style="stop-color:rgb(243,247,235);stop-opacity:1"/><stop offset="0.5" style="stop-color:rgb(187,202,114);stop-opacity:1"/><stop offset="1" style="stop-color:rgb(109,184,67);stop-opacity:1"/></linearGradient>
        <linearGradient id="_Linear25" x1="0" y1="0" x2="1" y2="0" gradientUnits="userSpaceOnUse" gradientTransform="matrix(1,2.77556e-17,2.77556e-17,-1,0,1.39426e-06)"><stop offset="0" style="stop-color:rgb(243,247,235);stop-opacity:1"/><stop offset="0.01" style="stop-color:rgb(243,247,235);stop-opacity:1"/><stop offset="0.5" style="stop-color:rgb(187,202,114);stop-opacity:1"/><stop offset="1" style="stop-color:rgb(109,184,67);stop-opacity:1"/></linearGradient>
        <linearGradient id="_Linear26" x1="0" y1="0" x2="1" y2="0" gradientUnits="userSpaceOnUse" gradientTransform="matrix(1,0,0,-1,0,-2.4815e-07)"><stop offset="0" style="stop-color:rgb(243,247,235);stop-opacity:1"/><stop offset="0.01" style="stop-color:rgb(243,247,235);stop-opacity:1"/><stop offset="0.5" style="stop-color:rgb(187,202,114);stop-opacity:1"/><stop offset="1" style="stop-color:rgb(109,184,67);stop-opacity:1"/></linearGradient>
        <linearGradient id="_Linear27" x1="0" y1="0" x2="1" y2="0" gradientUnits="userSpaceOnUse" gradientTransform="matrix(1,-2.77556e-17,-2.77556e-17,-1,0,-0.00137782)"><stop offset="0" style="stop-color:rgb(243,247,235);stop-opacity:1"/><stop offset="0.01" style="stop-color:rgb(243,247,235);stop-opacity:1"/><stop offset="0.5" style="stop-color:rgb(187,202,114);stop-opacity:1"/><stop offset="1" style="stop-color:rgb(109,184,67);stop-opacity:1"/></linearGradient>
        <linearGradient id="_Linear28" x1="0" y1="0" x2="1" y2="0" gradientUnits="userSpaceOnUse" gradientTransform="matrix(1,0,0,-1,0,-0.000288703)"><stop offset="0" style="stop-color:rgb(243,247,235);stop-opacity:1"/><stop offset="0.01" style="stop-color:rgb(243,247,235);stop-opacity:1"/><stop offset="0.5" style="stop-color:rgb(187,202,114);stop-opacity:1"/><stop offset="1" style="stop-color:rgb(109,184,67);stop-opacity:1"/></linearGradient>
        <linearGradient id="_Linear29" x1="0" y1="0" x2="1" y2="0" gradientUnits="userSpaceOnUse" gradientTransform="matrix(1,0,0,-1,0,-0.000318431)"><stop offset="0" style="stop-color:rgb(243,247,235);stop-opacity:1"/><stop offset="0.01" style="stop-color:rgb(243,247,235);stop-opacity:1"/><stop offset="0.5" style="stop-color:rgb(187,202,114);stop-opacity:1"/><stop offset="1" style="stop-color:rgb(109,184,67);stop-opacity:1"/></linearGradient>
        <linearGradient id="_Linear30" x1="0" y1="0" x2="1" y2="0" gradientUnits="userSpaceOnUse" gradientTransform="matrix(1,0,0,-1,0,0.000385834)"><stop offset="0" style="stop-color:rgb(243,247,235);stop-opacity:1"/><stop offset="0.01" style="stop-color:rgb(243,247,235);stop-opacity:1"/><stop offset="0.5" style="stop-color:rgb(187,202,114);stop-opacity:1"/><stop offset="1" style="stop-color:rgb(109,184,67);stop-opacity:1"/></linearGradient>
        <linearGradient id="_Linear31" x1="0" y1="0" x2="1" y2="0" gradientUnits="userSpaceOnUse" gradientTransform="matrix(1,0,0,-1,0,-5.78739e-05)"><stop offset="0" style="stop-color:rgb(243,247,235);stop-opacity:1"/><stop offset="0.01" style="stop-color:rgb(243,247,235);stop-opacity:1"/><stop offset="0.5" style="stop-color:rgb(187,202,114);stop-opacity:1"/><stop offset="1" style="stop-color:rgb(109,184,67);stop-opacity:1"/></linearGradient>
        <linearGradient id="_Linear32" x1="0" y1="0" x2="1" y2="0" gradientUnits="userSpaceOnUse" gradientTransform="matrix(1,0,0,-1,0,-0.000175902)"><stop offset="0" style="stop-color:rgb(243,247,235);stop-opacity:1"/><stop offset="0.01" style="stop-color:rgb(243,247,235);stop-opacity:1"/><stop offset="0.5" style="stop-color:rgb(187,202,114);stop-opacity:1"/><stop offset="1" style="stop-color:rgb(109,184,67);stop-opacity:1"/></linearGradient>
        <linearGradient id="_Linear33" x1="0" y1="0" x2="1" y2="0" gradientUnits="userSpaceOnUse" gradientTransform="matrix(1,0,-1.38778e-17,-1,0,-0.000836662)"><stop offset="0" style="stop-color:rgb(243,247,235);stop-opacity:1"/><stop offset="0.01" style="stop-color:rgb(243,247,235);stop-opacity:1"/><stop offset="0.5" style="stop-color:rgb(187,202,114);stop-opacity:1"/><stop offset="1" style="stop-color:rgb(109,184,67);stop-opacity:1"/></linearGradient>
        <linearGradient id="_Linear34" x1="0" y1="0" x2="1" y2="0" gradientUnits="userSpaceOnUse" gradientTransform="matrix(1,0,0,-1,0,1.68677e-07)"><stop offset="0" style="stop-color:rgb(243,247,235);stop-opacity:1"/><stop offset="0.01" style="stop-color:rgb(243,247,235);stop-opacity:1"/><stop offset="0.5" style="stop-color:rgb(187,202,114);stop-opacity:1"/><stop offset="1" style="stop-color:rgb(109,184,67);stop-opacity:1"/></linearGradient>
        <linearGradient id="_Linear35" x1="0" y1="0" x2="1" y2="0" gradientUnits="userSpaceOnUse" gradientTransform="matrix(1,-2.77556e-17,-2.77556e-17,-1,0,-0.000510044)"><stop offset="0" style="stop-color:rgb(243,247,235);stop-opacity:1"/><stop offset="0.01" style="stop-color:rgb(243,247,235);stop-opacity:1"/><stop offset="0.5" style="stop-color:rgb(187,202,114);stop-opacity:1"/><stop offset="1" style="stop-color:rgb(109,184,67);stop-opacity:1"/></linearGradient>
        <linearGradient id="_Linear36" x1="0" y1="0" x2="1" y2="0" gradientUnits="userSpaceOnUse" gradientTransform="matrix(1,1.38778e-17,1.38778e-17,-1,0,-1.78301e-06)"><stop offset="0" style="stop-color:rgb(243,247,235);stop-opacity:1"/><stop offset="0.01" style="stop-color:rgb(243,247,235);stop-opacity:1"/><stop offset="0.5" style="stop-color:rgb(187,202,114);stop-opacity:1"/><stop offset="1" style="stop-color:rgb(109,184,67);stop-opacity:1"/></linearGradient>
        <linearGradient id="_Linear37" x1="0" y1="0" x2="1" y2="0" gradientUnits="userSpaceOnUse" gradientTransform="matrix(1,0,0,-1,0,-0.00492026)"><stop offset="0" style="stop-color:rgb(243,247,235);stop-opacity:1"/><stop offset="0.01" style="stop-color:rgb(243,247,235);stop-opacity:1"/><stop offset="0.5" style="stop-color:rgb(187,202,114);stop-opacity:1"/><stop offset="1" style="stop-color:rgb(109,184,67);stop-opacity:1"/></linearGradient>
        <linearGradient id="_Linear38" x1="0" y1="0" x2="1" y2="0" gradientUnits="userSpaceOnUse" gradientTransform="matrix(1,-2.77556e-17,-2.77556e-17,-1,0,0.00163959)"><stop offset="0" style="stop-color:rgb(243,247,235);stop-opacity:1"/><stop offset="0.01" style="stop-color:rgb(243,247,235);stop-opacity:1"/><stop offset="0.5" style="stop-color:rgb(187,202,114);stop-opacity:1"/><stop offset="1" style="stop-color:rgb(109,184,67);stop-opacity:1"/></linearGradient>
        <linearGradient id="_Linear39" x1="0" y1="0" x2="1" y2="0" gradientUnits="userSpaceOnUse" gradientTransform="matrix(1,0,0,-1,0,0.00029339)"><stop offset="0" style="stop-color:rgb(243,247,235);stop-opacity:1"/><stop offset="0.01" style="stop-color:rgb(243,247,235);stop-opacity:1"/><stop offset="0.5" style="stop-color:rgb(187,202,114);stop-opacity:1"/><stop offset="1" style="stop-color:rgb(109,184,67);stop-opacity:1"/></linearGradient>
        <linearGradient id="_Linear40" x1="0" y1="0" x2="1" y2="0" gradientUnits="userSpaceOnUse" gradientTransform="matrix(1,0,0,-1,0,0.000324557)"><stop offset="0" style="stop-color:rgb(243,247,235);stop-opacity:1"/><stop offset="0.01" style="stop-color:rgb(243,247,235);stop-opacity:1"/><stop offset="0.5" style="stop-color:rgb(187,202,114);stop-opacity:1"/><stop offset="1" style="stop-color:rgb(109,184,67);stop-opacity:1"/></linearGradient>
        <linearGradient id="_Linear41" x1="0" y1="0" x2="1" y2="0" gradientUnits="userSpaceOnUse" gradientTransform="matrix(1,-1.38778e-17,-1.38778e-17,-1,0,-0.000391862)"><stop offset="0" style="stop-color:rgb(243,247,235);stop-opacity:1"/><stop offset="0.01" style="stop-color:rgb(243,247,235);stop-opacity:1"/><stop offset="0.5" style="stop-color:rgb(187,202,114);stop-opacity:1"/><stop offset="1" style="stop-color:rgb(109,184,67);stop-opacity:1"/></linearGradient>
        <linearGradient id="_Linear42" x1="0" y1="0" x2="1" y2="0" gradientUnits="userSpaceOnUse" gradientTransform="matrix(1,0,0,-1,0,5.69385e-05)"><stop offset="0" style="stop-color:rgb(243,247,235);stop-opacity:1"/><stop offset="0.01" style="stop-color:rgb(243,247,235);stop-opacity:1"/><stop offset="0.5" style="stop-color:rgb(187,202,114);stop-opacity:1"/><stop offset="1" style="stop-color:rgb(109,184,67);stop-opacity:1"/></linearGradient>
        <linearGradient id="_Linear43" x1="0" y1="0" x2="1" y2="0" gradientUnits="userSpaceOnUse" gradientTransform="matrix(1,1.38778e-17,1.38778e-17,-1,0,0.00024346)"><stop offset="0" style="stop-color:rgb(243,247,235);stop-opacity:1"/><stop offset="0.01" style="stop-color:rgb(243,247,235);stop-opacity:1"/><stop offset="0.5" style="stop-color:rgb(187,202,114);stop-opacity:1"/><stop offset="1" style="stop-color:rgb(109,184,67);stop-opacity:1"/></linearGradient>
    </defs>
</svg>
