<?xml version="1.0" encoding="UTF-8" standalone="no"?>
<!-- Created with Inkscape (http://www.inkscape.org/) -->

<svg
   width="64.934448mm"
   height="18.300011mm"
   viewBox="0 0 64.934448 18.300011"
   version="1.1"
   id="svg5"
   xml:space="preserve"
   xmlns:inkscape="http://www.inkscape.org/namespaces/inkscape"
   xmlns:sodipodi="http://sodipodi.sourceforge.net/DTD/sodipodi-0.dtd"
   xmlns="http://www.w3.org/2000/svg"
   xmlns:svg="http://www.w3.org/2000/svg"><sodipodi:namedview
     id="namedview7"
     pagecolor="#505050"
     bordercolor="#eeeeee"
     borderopacity="1"
     inkscape:showpageshadow="0"
     inkscape:pageopacity="0"
     inkscape:pagecheckerboard="0"
     inkscape:deskcolor="#505050"
     inkscape:document-units="mm"
     showgrid="false" /><defs
     id="defs2"><clipPath
       clipPathUnits="userSpaceOnUse"
       id="clipPath25"><path
         d="m 513.721,518.387 0.038,73.441 -196.473,0.161 -0.038,-73.442 z"
         clip-rule="evenodd"
         id="path23" /></clipPath><clipPath
       clipPathUnits="userSpaceOnUse"
       id="clipPath33"><path
         d="m 513.759,591.828 -0.04,-73.441 -210.226,0.16 0.041,73.442 z"
         clip-rule="evenodd"
         id="path31" /></clipPath><clipPath
       clipPathUnits="userSpaceOnUse"
       id="clipPath41"><path
         d="m 316.499,518.388 h 197.26 v 73.6017 h -197.26 z"
         clip-rule="evenodd"
         id="path39" /></clipPath></defs><g
     inkscape:label="Layer 1"
     inkscape:groupmode="layer"
     id="layer1"
     style="display:inline"
     transform="translate(-334.1193,-89.643499)"><g
       id="g21"
       clip-path="url(#clipPath25)"
       transform="matrix(0.35277777,0,0,-0.35277777,220,297.01069)"
       inkscape:export-filename="logo.svg"
       inkscape:export-xdpi="96"
       inkscape:export-ydpi="96"><g
         id="g27"><g
           id="g29"
           clip-path="url(#clipPath33)"><g
             id="g35"
             style="display:inline"><g
               id="g37"
               clip-path="url(#clipPath41)"
               style="display:inline"><g
                 id="g43"
                 transform="matrix(0.24,0,0,0.24,0,841.92)"><g
                   id="g45"
                   transform="matrix(818.796,0,0,306.674,1321.87,-1348.05)"><path
                     style="display:inline;fill:#000000;stroke-width:0.00199429"
                     d="m 0.44239806,0.24032114 c -0.00207,0.003513 -0.002469,0.008885 -0.01214,0.16358765 -0.001736,0.0277687 -0.003436,0.055266 -0.003777,0.0611051 -3.4157e-4,0.005839 -0.001045,0.0113157 -0.001563,0.0121702 -9.1831e-4,0.001514 -0.0107572,-0.0243217 -0.0179813,-0.0472167 l -0.003597,-0.0114006 0.002309,-0.0358306 c 0.004098,-0.0635917 0.004764,-0.0700326 0.007246,-0.0700326 0.001566,0 0.002247,-0.002401 0.002247,-0.007922 0,-0.008577 -0.004531,-0.0189527 -0.0124431,-0.0284966 -0.004335,-0.005229 -0.004673,-0.00519 -0.007554,8.556e-4 -0.002922,0.006131 -0.00585,0.02513 -0.00749,0.0485918 -0.001035,0.0148047 -0.003338,0.0325733 -0.004223,0.0325733 -3.8202e-4,0 -0.005123,-0.0120928 -0.0105359,-0.026873 -0.0139595,-0.0381183 -0.0267554,-0.0545027 -0.042596,-0.0545421 -0.0102837,-2.606e-5 -0.0184547,0.0115047 -0.0300324,0.0423794 -0.008444,0.022517 -0.009606,0.0272531 -0.0132186,0.053849 -0.005271,0.0388063 -0.00639,0.0567587 -0.006628,0.10631421 -1.1002e-4,0.0229338 -3.8542e-4,0.0417071 -6.1213e-4,0.0417184 -2.2671e-4,9.77e-6 -0.002777,-0.006942 -0.005668,-0.0154518 l -0.005256,-0.0154723 0.003226,-0.014658 c 0.002943,-0.0133712 0.003223,-0.0176605 0.00319,-0.0488599 C 0.27526607,0.394643 0.27500654,0.3910841 0.27114463,0.3697063 0.26678063,0.3455484 0.26099703,0.3292785 0.25397023,0.3213891 0.23345593,0.2983567 0.22442933,0.2931086 0.21245623,0.2972526 c -0.00966,0.003343 -0.0127693,0.008375 -0.0146707,0.0237452 -0.002428,0.0196275 8.0167e-4,0.0361526 0.0122083,0.0624626 0.005264,0.0121421 0.0115763,0.0257411 0.014027,0.0302199 0.008751,0.0159937 0.0214025,0.0427618 0.0214025,0.0452838 0,0.004688 -0.00443,0.0133486 -0.006812,0.0133163 -0.003777,-5.114e-5 -0.0141038,-0.014181 -0.0250936,-0.0343351 -0.0175946,-0.0322664 -0.0288911,-0.0423229 -0.0382679,-0.0340673 -0.006656,0.00586 -0.008322,0.0187331 -0.008465,0.0654078 l -1.16e-4,0.0376902 -0.007194,-0.0148889 c -0.003956,-0.008189 -0.009039,-0.0192863 -0.011294,-0.0246609 l -0.0041,-0.009772 0.007225,-0.0382368 c 0.0108303,-0.0573189 0.0139853,-0.10484736 0.008525,-0.12841811 -0.004412,-0.0190452 -0.0105697,-0.0248784 -0.0256107,-0.0242619 -0.00713,2.9218e-4 -0.0145591,0.001819 -0.0165088,0.003392 -0.005816,0.004694 -0.02025292,0.0216255 -0.02605221,0.0305536 l -0.0054132,0.008334 -0.0045359,-0.0121006 c -0.0070453,-0.0187952 -0.0184356,-0.0330734 -0.02638387,-0.0330734 -0.0073707,0 -0.01161697,0.004748 -0.01649185,0.0184388 -0.0046606,0.0130895 -0.0070855,0.0306244 -0.0070855,0.0512365 0,0.0175912 4.537e-5,0.0178101 0.0045788,0.0220892 0.0061216,0.005778 0.02354907,0.004934 0.0326098,-0.001579 0.0040007,-0.002876 0.0074895,-0.004654 0.0077529,-0.003951 9.4461e-4,0.00252 -0.0025559,0.0265676 -0.0072176,0.0495837 -0.0046446,0.0229313 -0.004695,0.0235379 -0.002323,0.0279701 0.0024053,0.004494 0.002406,0.004683 8.606e-5,0.0237917 -0.0067393,0.0555084 -0.01284306,0.11075045 -0.01544472,0.13978234 -0.0016055,0.0179153 -0.0043904,0.0462616 -0.0061887,0.0629917 -0.0036204,0.0336819 -0.0033428,0.0362107 0.0039858,0.0363069 0.0020888,2.736e-5 0.0063471,9.8201e-4 0.0094628,0.002121 0.0046985,0.001718 0.0056649,0.001184 0.0056649,-0.00313 0,-0.002861 9.9535e-4,-0.007824 0.0022119,-0.0110291 0.0012165,-0.003205 0.0031703,-0.0170043 0.0043417,-0.0306651 0.0021705,-0.0253122 0.0029889,-0.0287589 0.01603493,-0.067532 0.0053231,-0.0158204 0.0166327,-0.0377146 0.02666447,-0.0516195 0.005427,-0.007522 0.0118701,-0.0203769 0.0169826,-0.0338817 l 0.008238,-0.0217609 0.004582,0.009396 c 0.00252,0.005168 0.007879,0.0167333 0.0119085,0.0257014 0.004029,0.008968 0.0102106,0.0222198 0.0137363,0.0294481 0.003526,0.007228 0.00641,0.0150206 0.00641,0.0173162 0,0.007673 0.006612,0.020872 0.0181371,0.0362059 0.006282,0.008358 0.0115437,0.014738 0.011693,0.0141783 1.493e-4,-5.5968e-4 0.002147,-0.008125 0.00444,-0.0168116 0.002293,-0.008687 0.006371,-0.0192369 0.009064,-0.023445 0.005678,-0.008874 0.0178828,-0.0148589 0.0227328,-0.0111482 0.003245,0.002483 0.004751,0.00135 0.004751,-0.003573 0,-0.007745 -0.0184715,-0.02363 -0.0245536,-0.021115 -0.001605,6.6384e-4 -0.005466,0.002135 -0.00858,0.003269 -0.003587,0.001306 -0.007835,0.006185 -0.0115956,0.0133183 -0.003264,0.006191 -0.006261,0.0112567 -0.00666,0.0112567 -3.9909e-4,0 -0.002281,-0.007622 -0.004181,-0.0169378 -0.003033,-0.0148686 -0.003504,-0.0209893 -0.003851,-0.0501021 -4.8372e-4,-0.0405204 1.8081e-4,-0.0431494 0.008916,-0.0352712 0.003267,0.002947 0.008413,0.008676 0.0114345,0.0127311 0.009444,0.0126733 0.0259683,0.0298886 0.0328178,0.0341893 0.005866,0.003683 0.0154754,0.004815 0.0211144,0.002487 0.00123,-5.0791e-4 0.009224,0.017924 0.0201465,0.0464509 0.0161622,0.0422136 0.0192517,0.0487732 0.0287656,0.0610749 0.0126281,0.0163285 0.0151442,0.0170415 0.0170222,0.004824 0.008062,-0.0524479 0.0145071,-0.0755272 0.0261741,-0.0937295 0.004337,-0.006767 0.007688,-0.0139144 0.007447,-0.0158832 -6.9152e-4,-0.005631 -0.007542,-0.006052 -0.0133217,-8.1674e-4 -0.021854,0.0197937 -0.0325849,0.0418023 -0.0369688,0.0758208 -0.004111,0.0318976 -0.00877,-0.0260141 -0.007633,-0.0948702 5.5556e-4,-0.0336446 0.001272,-0.0440777 0.005143,-0.0749186 0.006214,-0.049505 0.0107486,-0.0693794 0.0183769,-0.0805428 0.004691,-0.006865 0.007732,-0.008889 0.0133951,-0.008916 0.0107189,-5.016e-5 0.0167716,0.009032 0.0310384,0.046572 l 0.0121734,0.032032 -0.003595,0.0656879 c -0.003075,0.0561819 -0.005435,0.0896855 -0.007986,0.11338179 -3.1671e-4,0.002942 -0.001657,0.006103 -0.002977,0.007024 -0.005316,0.003709 -7.7227e-4,0.0176608 0.0104189,0.0319888 0.00856,0.0109586 0.009893,0.0113777 0.011453,0.0036 0.00152,-0.007577 0.006857,-0.0803283 0.009373,-0.12776619 0.001093,-0.0206026 0.002074,-0.0376805 0.00218,-0.0379507 1.0623e-4,-2.7036e-4 0.004973,0.0114561 0.0108151,0.0260586 l 0.010622,0.0265501 -0.001265,0.019544 c -7.6995e-4,0.0118952 -0.002179,0.0216605 -0.003601,0.0249521 -0.0038,0.008796 -0.002758,0.0147582 0.005054,0.0289104 0.0151548,0.0274549 0.0192516,0.0270628 0.0203024,-0.001943 9.3422e-4,-0.0257879 8.7345e-4,-0.0257004 0.008613,-0.0123907 0.009214,0.0158451 0.0125503,0.0202519 0.0172214,0.0227442 0.005932,0.003165 0.004763,-0.003809 -0.002802,-0.01672 -0.003664,-0.006253 -0.009776,-0.0191017 -0.0135821,-0.0285522 l -0.00692,-0.0171826 0.002066,-0.0389969 c 0.001136,-0.0214483 0.002517,-0.0521892 0.003068,-0.0683129 5.5103e-4,-0.0161238 0.002543,-0.0523002 0.004426,-0.080392 l 0.003424,-0.0510761 0.003122,0.006006 c 0.00633,0.0121792 0.008459,0.0197496 0.0102894,0.0365782 0.003391,0.0311825 0.0107912,0.10802948 0.0124797,0.12960013 9.1154e-4,0.0116449 0.003549,0.0431596 0.005862,0.0700326 l 0.004204,0.0488599 -0.003145,0.006783 -0.003145,0.006783 0.002941,0.0055 c 0.003895,0.007284 0.0271193,0.0314234 0.0302328,0.0314234 0.002891,0 0.008773,-0.0186975 0.007865,-0.0250051 -7.9701e-4,-0.005541 0.00161,-0.0416887 0.004655,-0.069905 0.001775,-0.0164441 0.002842,-0.0215131 0.004459,-0.0211726 0.002778,5.8505e-4 0.003467,-0.011797 9.6451e-4,-0.0173372 -0.00104,-0.002302 -0.00189,-0.007138 -0.00189,-0.0107466 0,-0.0116884 0.009777,-0.13556919 0.0126064,-0.15973254 0.002398,-0.0204803 0.003147,-0.0235878 0.005889,-0.0244492 0.004275,-0.001343 0.0104172,0.0129724 0.0119596,0.0278747 0.001247,0.0120505 -5.848e-5,0.0397289 -0.004069,0.0862477 -0.001602,0.0185805 -0.004481,0.0592255 -0.006869,0.0969622 -0.003768,0.05956 -0.00568,0.0773924 -0.008556,0.0798276 -0.006981,0.005911 8.9335e-4,0.0275096 0.0118045,0.0323781 0.004276,0.001908 0.005448,0.001154 0.007548,-0.00486 0.001367,-0.003915 0.002846,-0.0128052 0.003286,-0.0197557 4.4017e-4,-0.006951 0.001265,-0.013404 0.001834,-0.014341 5.6829e-4,-9.3697e-4 0.004504,0.003319 0.008746,0.009458 0.004242,0.006139 0.0115125,0.0151573 0.0161566,0.0200411 0.0118983,0.0125124 0.0131231,0.0107983 0.0210692,-0.0294872 0.0160036,-0.0811359 0.0205249,-0.128411 0.0196852,-0.20583237 -3.9577e-4,-0.036493 -1.9376e-4,-0.0450843 9.5742e-4,-0.0407166 8.0247e-4,0.003045 0.005583,0.0148926 0.0106235,0.0263288 0.00885,0.0200794 0.009126,0.0211415 0.008056,0.0309446 -0.001815,0.0166194 -0.002697,0.11835336 -0.001259,0.14533072 7.1607e-4,0.0134365 0.002425,0.0341294 0.003798,0.0459842 l 0.002496,0.0215542 0.0126111,0.0167194 c 0.006936,0.009196 0.0138349,0.0167194 0.0153306,0.0167194 0.002828,0 0.0156931,-0.0215319 0.0207617,-0.0347479 0.003056,-0.007969 0.005808,-0.010366 0.004268,-0.003718 -4.9431e-4,0.002134 0.001139,5.1941e-4 0.00363,-0.003587 0.003981,-0.006563 0.00578,-0.007328 0.0148684,-0.006322 0.006756,7.4772e-4 0.0103396,-5.57e-5 0.0103395,-0.002318 -3.8e-7,-0.007495 -0.007123,-0.0206057 -0.0149852,-0.0275853 -0.0106689,-0.009471 -0.0226505,-0.007727 -0.0340213,0.004951 -0.004274,0.004765 -0.008554,0.008921 -0.009512,0.009237 -0.002768,9.1101e-4 -0.005807,-0.0267236 -0.007182,-0.0652966 -0.001114,-0.0312673 -7.4035e-4,-0.0823384 6.0275e-4,-0.0823384 2.7957e-4,0 0.005724,0.009435 0.0120988,0.0209662 0.006375,0.0115314 0.0174733,0.0289285 0.0246634,0.0386604 0.01189,0.0160932 0.0140185,0.0178776 0.0235232,0.0197216 0.00659,0.001278 0.0109166,7.8361e-4 0.0117124,-0.001339 8.6876e-4,-0.002318 7.7304e-4,-0.008396 -3.0713e-4,-0.0195053 -0.002379,-0.0244696 -0.002909,-0.0761117 -0.001084,-0.10573465 8.8286e-4,-0.0143322 0.003174,-0.0351638 0.005091,-0.0462924 l 0.003485,-0.0202338 0.008405,0.0141293 c 0.006001,0.0100872 0.008516,0.0163416 0.008791,0.0218625 3.6779e-4,0.007373 0.003055,0.0334912 0.0131941,0.1282544 0.002492,0.0232899 0.005108,0.0482085 0.005812,0.0553746 7.0481e-4,0.007166 0.002316,0.0217423 0.00358,0.0323914 0.002931,0.0246908 0.00289,0.029954 -2.5012e-4,0.0321444 -0.004508,0.003145 -0.002127,0.0130603 0.005835,0.0243005 0.004153,0.005863 0.009628,0.0109935 0.0121651,0.0114007 0.004172,6.6938e-4 0.004814,-3.5049e-4 0.006701,-0.0106605 0.001148,-0.00627 0.00352,-0.0327799 0.005272,-0.05891 0.00375,-0.0559259 0.005305,-0.0721556 0.006782,-0.0707706 0.001781,0.00167 0.023366,0.0519159 0.029285,0.0681699 0.003022,0.008299 0.008164,0.0238389 0.0114272,0.034534 0.0067,0.021961 0.017972,0.0410551 0.0204048,0.0345648 0.003175,-0.008469 0.00593,-0.10664036 0.005664,-0.20182439 -2.523e-4,-0.090418 -2.2338e-4,-0.0915978 0.002186,-0.0891669 0.0122905,0.0123986 0.0527049,-1.2639e-4 0.0607448,-0.0188257 0.004234,-0.009847 0.002674,-0.0158598 -0.005185,-0.0199847 -0.004027,-0.002114 -0.00911,-0.005804 -0.0112943,-0.008201 -0.003484,-0.003822 -0.004873,-0.003568 -0.0112981,0.002066 -0.0112017,0.009823 -0.028924,0.009682 -0.0418909,-3.339e-4 -0.009263,-0.007155 -0.0103133,-0.007387 -0.0120817,-0.002669 -0.001716,0.004579 -0.001769,0.009138 -4.6621e-4,0.0400332 8.0886e-4,0.0191764 0.001325,0.0577552 0.001147,0.0857308 -3.1584e-4,0.0496194 -0.003387,0.13995124 -0.004806,0.14136303 -3.9076e-4,3.8876e-4 -0.004237,-0.00766 -0.008547,-0.0178855 -0.005907,-0.0140138 -0.0238122,-0.0522275 -0.0327232,-0.0698372 -5.7846e-4,-0.001143 0.007476,-0.0892581 0.0109148,-0.11940739 0.001391,-0.0121931 0.00318,-0.0226977 0.003977,-0.0233435 7.9645e-4,-6.459e-4 0.002959,-0.002058 0.004806,-0.003137 0.001847,-0.00108 0.003358,-0.003038 0.003358,-0.004352 0,-0.001314 -0.003679,-0.008615 -0.008175,-0.0162246 -0.008357,-0.0141444 -0.0148078,-0.017826 -0.0171076,-0.009764 -0.00151,0.005294 -0.005288,0.034717 -0.0122561,0.0954672 l -0.005627,0.0490502 -0.006351,-0.009176 c -0.006109,-0.008827 -0.006454,-0.010074 -0.00907,-0.0327636 -0.006741,-0.0584748 -0.006082,-0.0548337 -0.0108438,-0.0598463 -0.009701,-0.0102119 -0.0230397,-0.0298204 -0.0324205,-0.047661 -0.005439,-0.0103441 -0.0109257,-0.0183882 -0.0122196,-0.0179153 -0.002173,7.941e-4 -0.0107255,0.0321115 -0.012466,0.0456465 -4.0315e-4,0.003135 -9.3127e-4,0.0057 -0.001174,0.0057 -0.001102,0 -0.0149276,-0.0209811 -0.0183192,-0.0278003 -0.00208,-0.004182 -0.006201,-0.0144158 -0.009158,-0.0227411 -0.007848,-0.0220984 -0.008576,-0.0226801 -0.0159368,-0.0127293 -0.0102264,0.0138246 -0.0180943,0.0361719 -0.0236151,0.0670746 -0.002667,0.0149274 -0.004982,0.0277116 -0.005144,0.0284094 -9.7392e-4,0.004182 -0.0260029,-0.0579525 -0.0260029,-0.0645523 0,-0.002974 -0.004773,-0.008567 -0.0102176,-0.0119724 -0.003465,-0.002168 -0.003496,-0.002057 -0.002882,0.0104741 3.4109e-4,0.006966 0.00132,0.0226979 0.002176,0.0349606 0.002373,0.0340237 -2.879e-4,0.10538117 -0.005,0.13405599 -5.8877e-4,0.003583 -0.002459,0.0158759 -0.004155,0.0273175 -0.001696,0.0114415 -0.004387,0.0253666 -0.005979,0.0309446 -0.001592,0.005578 -0.004051,0.016005 -0.005465,0.0231711 -0.001414,0.007166 -0.004986,0.020296 -0.007939,0.0291775 l -0.005368,0.0161482 -0.007912,-0.0103904 -0.007912,-0.0103904 0.001036,-0.0202062 c 5.6971e-4,-0.0111134 0.001534,-0.0254308 0.002143,-0.0318164 6.0896e-4,-0.006386 0.001734,-0.0226037 0.0025,-0.0360402 0.001855,-0.0325282 0.003539,-0.056459 0.005502,-0.0781759 8.9053e-4,-0.009853 0.001957,-0.0219463 0.002369,-0.026873 6.1312e-4,-0.007321 0.001415,-0.008958 0.00439,-0.008958 0.0062,0 0.004581,-0.0104578 -0.004602,-0.0297368 -0.0160577,-0.0337103 -0.045221,-0.0838421 -0.0477482,-0.082079 -0.004735,0.003304 -0.0120017,0.0617838 -0.0173335,0.13950312 -0.001475,0.0214984 -0.003183,0.044576 -0.003796,0.0512836 l -0.001115,0.0121956 -0.006365,-0.0133752 C 0.50450446,0.42912584 0.50240296,0.42039204 0.49999356,0.39399504 0.49588656,0.34899644 0.49413456,0.34347314 0.45982556,0.2673369 0.44656696,0.2379143 0.44513226,0.2356902 0.44240126,0.240324 Z m -0.31041232,0.060271 c 0.001072,0.002182 0.002931,0.009038 0.004132,0.0152353 0.003697,0.0190837 8.8554e-4,0.0769595 -0.004787,0.098566 -0.001556,0.005926 -0.00236,0.004638 -0.0142916,-0.0228868 -0.006954,-0.0160415 -0.0150447,-0.0358075 -0.01798034,-0.0439246 l -0.0053375,-0.0147583 0.0041165,-0.005688 c 0.0058427,-0.008073 0.02817944,-0.0305173 0.03036801,-0.0305144 0.001007,1.37e-6 0.002709,0.001788 0.003781,0.003971 z m 0.58110579,0.0230769 c 0.005051,0.0113697 0.0109783,0.0231471 0.0131708,0.0261718 0.003731,0.005147 0.00393,0.006274 0.003107,0.0175687 -4.839e-4,0.006638 -9.1626e-4,0.0336892 -9.6082e-4,0.0601136 -9.194e-5,0.0545196 7.558e-5,0.0538147 -0.009545,0.0401678 -0.007579,-0.0107504 -0.0349561,-0.0572593 -0.0357679,-0.0607631 -3.6052e-4,-0.001556 7.4818e-4,-0.0151063 0.002464,-0.0301113 0.00242,-0.02117 0.00464,-0.0325019 0.009906,-0.0505834 0.003733,-0.0128159 0.007159,-0.023287 0.007615,-0.023269 4.5529e-4,1.955e-5 0.004961,0.009335 0.0100121,0.0207049 z m -0.58953532,0.107927 c 0.001169,0.003583 0.002144,0.007577 0.002166,0.008876 7.571e-5,0.004404 -0.0139622,0.0379174 -0.0213269,0.0509148 -0.004029,0.007111 -0.01116378,0.0210193 -0.0158544,0.0309075 -0.0046906,0.009888 -0.0086925,0.0175406 -0.0088931,0.0170054 -4.4906e-4,-0.001198 0.0036044,-0.0418322 0.0083069,-0.0832739 0.0019313,-0.0170195 0.0049482,-0.0438181 0.0067043,-0.0595523 l 0.0031929,-0.0286077 0.01178921,0.0286077 c 0.006484,0.0157342 0.0127457,0.0315393 0.0139151,0.0351225 z"
                     id="path250" /></g></g></g></g></g></g></g></g><g
     id="g55"
     transform="matrix(0.35561762,0,0,-0.34991322,-3.3735409,-48.335683)"
     style="display:inline"><g
       id="g57"
       transform="translate(37.1531,-148.009)"><text
         xml:space="preserve"
         transform="scale(1,-1)"
         style="font-variant:normal;font-weight:normal;font-size:13.3286px;font-family:'Lucida Fax';-inkscape-font-specification:LucidaGrande;writing-mode:lr-tb;fill:#231f20;fill-opacity:1;fill-rule:nonzero;stroke:none"
         id="text61"><tspan
           x="0 16.732725 29.286932 43.044712 57.075729 69.584625 83.3424 97.867912 111.62569"
           y="0"
           sodipodi:role="line"
           id="tspan59">WERKSTATT</tspan></text></g></g></svg>
